<?xml version="1.0" encoding="utf-8"?>
<!-- Generator: Adobe Illustrator 25.0.0, SVG Export Plug-In . SVG Version: 6.00 Build 0)  -->
<svg version="1.1" id="Layer_1" xmlns="http://www.w3.org/2000/svg" xmlns:xlink="http://www.w3.org/1999/xlink" x="0px" y="0px"
	 viewBox="0 0 512 512" style="enable-background:new 0 0 512 512;" xml:space="preserve">
<style type="text/css">
	.st0{fill:#90257D;}
</style>
<g id="_x33__x2C__Document_x2C__hospital_x2C__paper_x2C__prescription_x2C__report">
	<g id="XMLID_9966_">
		<g id="XMLID_9968_">
			<path id="XMLID_9975_" class="st0" d="M375.5,59.1h-21.1v-9.8c0-5.4-4.4-9.8-9.8-9.8h-40.4C299.7,16.9,279.8,0,256,0
				s-43.7,16.9-48.2,39.4h-40.4c-5.4,0-9.8,4.4-9.8,9.8v9.8h-21.1c-26.4,0-47.9,21.5-47.9,47.9v357.2c0,26.4,21.5,47.9,47.9,47.9
				h239.1c26.4,0,47.9-21.5,47.9-47.9V106.9C423.4,80.5,401.9,59.1,375.5,59.1L375.5,59.1z M177.2,59.1h39.4c5.4,0,9.8-4.4,9.8-9.8
				c0-16.3,13.3-29.5,29.5-29.5s29.5,13.3,29.5,29.5c0,5.4,4.4,9.8,9.8,9.8h39.4v29.5H177.2L177.2,59.1z M403.7,464.1
				c0,15.5-12.6,28.2-28.2,28.2H136.5c-15.5,0-28.2-12.6-28.2-28.2V106.9c0-15.5,12.6-28.2,28.2-28.2h21.1v19.7
				c0,5.4,4.4,9.8,9.8,9.8h177.2c5.4,0,9.8-4.4,9.8-9.8V78.8h21.1c15.5,0,28.2,12.6,28.2,28.2V464.1z"/>
			<path id="XMLID_9972_" class="st0" d="M374.2,285.5c-5.4,0-9.8,4.4-9.8,9.8v98.5h-49.2c-5.4,0-9.8,4.4-9.8,9.8v49.2H147.7V226.5
				h78.8c3.7,0,7.1-2.1,8.8-5.4l18-36l22.8,83.4c1.2,4.3,5.1,7.3,9.5,7.3c0,0,0.1,0,0.1,0c4.5,0,8.4-3.1,9.4-7.5l17.8-71.3h41.5
				c5.4,0,9.8-4.4,9.8-9.8c0-5.4-4.4-9.8-9.8-9.8h-49.2c-4.5,0-8.5,3.1-9.6,7.5l-10.6,42.2l-19.6-72c-1.1-3.9-4.5-6.8-8.5-7.2
				c-4.1-0.4-8,1.7-9.8,5.4l-26.8,53.6h-72.7v-59.1c0-5.4-4.4-9.8-9.8-9.8c-5.4,0-9.8,4.4-9.8,9.8v315.1c0,5.4,4.4,9.8,9.8,9.8
				h177.2c2.7,0,5.2-1.1,7-2.9l59.1-59.1c1.8-1.8,2.9-4.3,2.9-7V295.4C384,289.9,379.6,285.5,374.2,285.5L374.2,285.5z M350.4,413.5
				L324.9,439v-25.5H350.4z"/>
			<path id="XMLID_9971_" class="st0" d="M187.1,315.1H256c5.4,0,9.8-4.4,9.8-9.8c0-5.4-4.4-9.8-9.8-9.8h-68.9
				c-5.4,0-9.8,4.4-9.8,9.8C177.2,310.7,181.6,315.1,187.1,315.1z"/>
			<path id="XMLID_9970_" class="st0" d="M334.8,344.6c0-5.4-4.4-9.8-9.8-9.8H187.1c-5.4,0-9.8,4.4-9.8,9.8c0,5.4,4.4,9.8,9.8,9.8
				h137.8C330.4,354.5,334.8,350.1,334.8,344.6z"/>
			<path id="XMLID_9969_" class="st0" d="M187.1,374.2c-5.4,0-9.8,4.4-9.8,9.8s4.4,9.8,9.8,9.8h88.6c5.4,0,9.8-4.4,9.8-9.8
				s-4.4-9.8-9.8-9.8H187.1z"/>
		</g>
	</g>
</g>
</svg>
