<?xml version="1.0" encoding="utf-8"?>
<!-- Generator: Adobe Illustrator 25.0.0, SVG Export Plug-In . SVG Version: 6.00 Build 0)  -->
<svg version="1.1" id="Capa_1" xmlns="http://www.w3.org/2000/svg" xmlns:xlink="http://www.w3.org/1999/xlink" x="0px" y="0px"
	 viewBox="0 0 512 512" style="enable-background:new 0 0 512 512;" xml:space="preserve">
<style type="text/css">
	.st0{fill:#90257D;}
</style>
<g>
	<g>
		<path class="st0" d="M504.5,244c-4.1,0-7.5,3.4-7.5,7.5v188.6c0,14.2-11.5,25.7-25.7,25.7h-55.8c-4.1,0-7.5,3.4-7.5,7.5
			s3.4,7.5,7.5,7.5h55.8c22.4,0,40.7-18.2,40.7-40.7V251.5C512,247.4,508.6,244,504.5,244z"/>
	</g>
</g>
<g>
	<g>
		<path class="st0" d="M493.1,156.6c-16.9-10.9-24.5-26.6-27.8-39.9H478c4.1,0,7.5-3.4,7.5-7.5V16c0-4.1-3.4-7.5-7.5-7.5H255.6
			c-4.1,0-7.5,3.4-7.5,7.5v93.1c0,4.1,3.4,7.5,7.5,7.5h12.7c-1.4,5.6-3.4,10.9-5.9,15.7h-95.5c-6.1,0-11.8,2.2-16.3,6
			c-4.5-3.8-10.3-6-16.3-6h-32c-4.1,0-7.5,3.4-7.5,7.5s3.4,7.5,7.5,7.5h32c4.1,0,7.8,2.4,9.5,6.1c1.2,2.7,3.9,4.4,6.8,4.4
			c0,0,0,0,0,0c2.9,0,5.6-1.7,6.8-4.4c1.7-3.7,5.4-6.1,9.5-6.1h107.7c5.8,0,10.5,4.7,10.5,10.5v207.7c-12.5,0.3-24.5,4-34.9,10.6
			c-11-7.1-23.8-10.9-37.2-10.9c-18.4,0-35.8,7.2-48.8,20.2c-7.8,7.8-13.5,17.1-16.8,27.3H48c-4.1,0-7.5,3.4-7.5,7.5
			s3.4,7.5,7.5,7.5h96.2c-0.2,2.2-0.3,4.3-0.3,6.5c0,1.6,0.1,3.2,0.2,4.8c-0.1,0.2-0.3,0.4-0.4,0.7c-1.7,3.7-5.4,6.1-9.5,6.1H25.5
			c-5.8,0-10.5-4.7-10.5-10.5V157.8c0-5.8,4.7-10.5,10.5-10.5h45c4.1,0,7.5-3.4,7.5-7.5s-3.4-7.5-7.5-7.5h-45
			c-14,0-25.5,11.4-25.5,25.5v277.6c0,14,11.4,25.5,25.5,25.5h108.8c4.9,0,9.5-1.4,13.5-3.9c3.4,9.7,8.9,18.6,16.4,26.1
			c13,13,30.4,20.2,48.8,20.2c13.2,0,25.9-3.7,36.8-10.6c11.1,7.1,23.9,10.9,37.2,10.9c20.2,0,38.4-8.7,51-22.6h45.8
			c4.1,0,7.5-3.4,7.5-7.5s-3.4-7.5-7.5-7.5h-35.4c4.8-9.4,7.6-20.1,7.6-31.4c0-10.6-2.4-20.6-6.7-29.6h113.7c4.1,0,7.5-3.4,7.5-7.5
			v-45.1c0,0,0-0.1,0-0.1s0-0.1,0-0.1v-118c0-4.1-3.4-7.5-7.5-7.5H300.1v-68.8c0-3.3-0.6-6.5-1.8-9.4c1,0.5,2.1,0.8,3.4,0.8h75
			c4.1,0,7.5-3.4,7.5-7.5s-3.4-7.5-7.5-7.5h-75c-4.1,0-7.4,3.2-7.5,7.3c-3.8-4.6-9.2-7.8-15.4-8.8c2.1-5.1,3.7-10.5,4.9-16.1h166.2
			c3.5,17,12.6,38,35.1,52.5c7.6,4.9,12.1,13.1,12.1,21.8v28.8c0,4.1,3.4,7.5,7.5,7.5s7.5-3.4,7.5-7.5V191
			C512,177.1,504.9,164.2,493.1,156.6z M174.7,472.4c-7.6-7.6-12.6-17.1-14.7-27.3c0-0.1-0.1-0.3-0.1-0.4c-0.7-3.4-1-6.9-1-10.4
			c0-14.4,5.6-28,15.8-38.2c10.5-10.5,24.4-15.8,38.2-15.8s27.7,5.3,38.2,15.8c10.2,10.2,15.8,23.8,15.8,38.2
			c0,14.4-5.6,28-15.8,38.2C230,493.4,195.8,493.4,174.7,472.4z M455.4,389.9H339.6v0c-10-11.7-23.8-20.1-39.5-23.2v-7h155.4V389.9z
			 M300.1,241.6h155.4v103.1H300.1V241.6z M341,434.4c0,29.8-24.2,54-54,54c-8.7,0-17.1-2.1-24.7-6c6.5-6.7,11.5-14.4,14.7-22.5
			h30.3c4.1,0,7.5-3.4,7.5-7.5s-3.4-7.5-7.5-7.5H281c3.2-20.7-2.9-42.5-18.5-58.6c7.5-3.8,15.8-5.8,24.4-5.8
			C316.7,380.4,341,404.7,341,434.4z M282.1,101.6h-19.1V23.5h19.1V101.6z M333.5,101.6h-36.4V23.5h36.4V101.6z M385,101.6h-36.4
			V23.5H385L385,101.6L385,101.6z M436.4,101.6H400V23.5h36.4V101.6z M451.4,23.5h19.1v78.1h-19.1V23.5z"/>
	</g>
</g>
<g>
	<g>
		<path class="st0" d="M414.9,134.2h-15.2c-4.1,0-7.5,3.4-7.5,7.5s3.4,7.5,7.5,7.5h15.2c4.1,0,7.5-3.4,7.5-7.5
			S419.1,134.2,414.9,134.2z"/>
	</g>
</g>
<g>
	<g>
		<path class="st0" d="M397.1,367.3h-60.6c-4.1,0-7.5,3.4-7.5,7.5s3.4,7.5,7.5,7.5h60.6c4.1,0,7.5-3.4,7.5-7.5
			S401.2,367.3,397.1,367.3z"/>
	</g>
</g>
<g>
	<g>
		<path class="st0" d="M387.5,276.2h-1.4v-1.4c0-10.6-8.7-19.3-19.3-19.3s-19.3,8.7-19.3,19.3v1.4H346c-10.6,0-19.3,8.7-19.3,19.3
			s8.7,19.3,19.3,19.3h1.4v1.4c0,10.6,8.7,19.3,19.3,19.3s19.3-8.7,19.3-19.3v-1.4h1.4c10.6,0,19.3-8.7,19.3-19.3
			S398.1,276.2,387.5,276.2z M387.5,299.8h-8.9c-4.1,0-7.5,3.4-7.5,7.5v8.9c0,2.4-1.9,4.3-4.3,4.3c-2.4,0-4.3-1.9-4.3-4.3v-8.9
			c0-4.1-3.4-7.5-7.5-7.5H346c-2.4,0-4.3-1.9-4.3-4.3s1.9-4.3,4.3-4.3h8.9c4.1,0,7.5-3.4,7.5-7.5v-8.9c0-2.4,1.9-4.3,4.3-4.3
			c2.4,0,4.3,1.9,4.3,4.3v8.9c0,4.1,3.4,7.5,7.5,7.5h8.9c2.4,0,4.3,1.9,4.3,4.3C391.8,297.9,389.8,299.8,387.5,299.8z"/>
	</g>
</g>
<g>
	<g>
		<path class="st0" d="M150.6,163.1c-4.1,0-7.5,3.4-7.5,7.5v192.1c0,4.1,3.4,7.5,7.5,7.5s7.5-3.4,7.5-7.5V170.6
			C158.1,166.5,154.7,163.1,150.6,163.1z"/>
	</g>
</g>
<g>
	<g>
		<path class="st0" d="M69.2,388.8H48c-4.1,0-7.5,3.4-7.5,7.5s3.4,7.5,7.5,7.5h21.1c4.1,0,7.5-3.4,7.5-7.5S73.3,388.8,69.2,388.8z"
			/>
	</g>
</g>
<g>
	<g>
		<path class="st0" d="M78.9,180.7c-21.3,0-38.6,17.3-38.6,38.6S57.6,258,78.9,258c21.3,0,38.6-17.3,38.6-38.6
			S100.2,180.7,78.9,180.7z M78.9,243c-13,0-23.6-10.6-23.6-23.6s10.6-23.6,23.6-23.6s23.6,10.6,23.6,23.6S91.9,243,78.9,243z"/>
	</g>
</g>
<g>
	<g>
		<path class="st0" d="M69.1,208.8c-4.1,0-7.5,3.4-7.5,7.5v6.2c0,4.1,3.4,7.5,7.5,7.5s7.5-3.4,7.5-7.5v-6.2
			C76.6,212.1,73.2,208.8,69.1,208.8z"/>
	</g>
</g>
<g>
	<g>
		<path class="st0" d="M78.9,277.2c-21.3,0-38.6,17.3-38.6,38.6s17.3,38.6,38.6,38.6c21.3,0,38.6-17.3,38.6-38.6
			C117.6,294.6,100.2,277.2,78.9,277.2z M78.9,339.5c-13,0-23.6-10.6-23.6-23.6s10.6-23.6,23.6-23.6s23.6,10.6,23.6,23.6
			C102.6,328.9,91.9,339.5,78.9,339.5z"/>
	</g>
</g>
<g>
	<g>
		<path class="st0" d="M69.1,305.3c-4.1,0-7.5,3.4-7.5,7.5v6.2c0,4.1,3.4,7.5,7.5,7.5s7.5-3.4,7.5-7.5v-6.2
			C76.6,308.6,73.2,305.3,69.1,305.3z"/>
	</g>
</g>
<g>
	<g>
		<path class="st0" d="M221.2,180.7c-21.3,0-38.6,17.3-38.6,38.6s17.3,38.6,38.6,38.6c21.3,0,38.6-17.3,38.6-38.6
			C259.8,198,242.5,180.7,221.2,180.7z M221.2,243c-13,0-23.6-10.6-23.6-23.6s10.6-23.6,23.6-23.6c13,0,23.6,10.6,23.6,23.6
			S234.2,243,221.2,243z"/>
	</g>
</g>
<g>
	<g>
		<path class="st0" d="M211.4,208.8c-4.1,0-7.5,3.4-7.5,7.5v6.2c0,4.1,3.4,7.5,7.5,7.5s7.5-3.4,7.5-7.5v-6.2
			C218.9,212.1,215.5,208.8,211.4,208.8z"/>
	</g>
</g>
<g>
	<g>
		<path class="st0" d="M221.2,277.2c-21.3,0-38.6,17.3-38.6,38.6s17.3,38.6,38.6,38.6c21.3,0,38.6-17.3,38.6-38.6
			C259.8,294.6,242.5,277.2,221.2,277.2z M221.2,339.5c-13,0-23.6-10.6-23.6-23.6s10.6-23.6,23.6-23.6c13,0,23.6,10.6,23.6,23.6
			S234.2,339.5,221.2,339.5z"/>
	</g>
</g>
<g>
	<g>
		<path class="st0" d="M211.4,305.3c-4.1,0-7.5,3.4-7.5,7.5v6.2c0,4.1,3.4,7.5,7.5,7.5s7.5-3.4,7.5-7.5v-6.2
			C218.9,308.6,215.5,305.3,211.4,305.3z"/>
	</g>
</g>
<g>
	<g>
		<path class="st0" d="M219.8,455.9l-28.6-28.6c-2.9-2.9-7.7-2.9-10.6,0c-2.9,2.9-2.9,7.7,0,10.6l28.6,28.6c1.5,1.5,3.4,2.2,5.3,2.2
			c1.9,0,3.8-0.7,5.3-2.2C222.7,463.6,222.7,458.8,219.8,455.9z"/>
	</g>
</g>
</svg>
