<?xml version="1.0" encoding="utf-8"?>
<!-- Generator: Adobe Illustrator 25.0.0, SVG Export Plug-In . SVG Version: 6.00 Build 0)  -->
<svg version="1.1" id="Layer_1" xmlns="http://www.w3.org/2000/svg" xmlns:xlink="http://www.w3.org/1999/xlink" x="0px" y="0px"
	 viewBox="0 0 512 512" style="enable-background:new 0 0 512 512;" xml:space="preserve">
<style type="text/css">
	.st0{fill:#90257D;}
</style>
<g id="Out_line">
	<path class="st0" d="M482.8,420.2l-9.6,8.3l-47.2-60.7l52.6-75.2l-13.1-9.2l-56,80c-2,2.9-1.9,6.7,0.2,9.5l6,7.8l-19.1,15.8
		l-19.5-58.4l12.5-12.5c2.4-2.4,3-6.2,1.5-9.2l-8-16c-2-4-6.8-5.6-10.7-3.6c-0.2,0.1-0.4,0.2-0.7,0.4l-4.3,2.7l-2.7-7.7
		c-3.5-9.9-13.1-16.4-23.7-16l-2.9-12.2H360c2.7,0,5.2-1.3,6.7-3.6c25.8-38.8,74.7-55.2,118.7-39.8l5.3-15.1
		c-49.4-17.3-104.2,0-134.8,42.4h-37.7c-17.6,0-35.1,2.3-52.1,6.7l-28.4-28.4c-2.9-2.9-7.5-3.1-10.7-0.6l-12.6,10.1
		c-15.9-12.9-35.8-19.9-56.3-19.8H16v16h142.1c5.6,0,11.2,0.6,16.7,1.9c-12.7,0.7-25,4.5-35.9,11.1l-5.1,3H16v16h112v64H16v16h120
		c4.4,0,8-3.6,8-8c0,0,0,0,0,0v-16h14.1l2.6,1.3c-8.3,9.8-15.6,20.4-21.9,31.6L22.5,374.6l2.9,15.7l115.9-21.7l0,0l29,29l11.3-11.3
		l-27.7-27.7l0,0c4.9-8.4,10.4-16.4,16.5-23.9L243.1,480H16v16h379.5c15.1,0,29.7-5.4,41.2-15.2l56.5-48.4L482.8,420.2z
		 M262.5,273.8l7.6,7.6c-9.7,16.5-24.5,29.3-42.3,36.4l-4.7-9.4l-0.8-1.7C238.3,299.4,252.2,288.1,262.5,273.8z M231.4,242.7
		l19.6,19.6c-4.2,6.1-9.1,11.7-14.7,16.6c0.6-4.1,0-8.2-1.9-11.9l-0.1-0.2c-3.3-6.6-10.1-10.8-17.5-10.8h-2l0.6-0.5L231.4,242.7z
		 M160,304h-16v-43.5l3.1-1.8c14.2-8.6,31.3-11.1,47.4-6.9l-7.5,6c-3.5,2.8-4,7.8-1.2,11.2c1.5,1.9,3.8,3,6.2,3h0l24.8,0h0
		c1.3,0,2.6,0.7,3.2,1.9l0.1,0.2c0.9,1.8,0.3,4-1.3,5.1c-6.9,4.5-15.2,10.1-15.2,10.1c-3.4,2.2-4.5,6.6-2.7,10.2l3.3,6.6l-27,5.4
		l-13.5-6.8C162.5,304.3,161.2,304,160,304z M261,480l-76.8-153.5l27.4-5.5l5.3,10.5c1.9,3.7,6.3,5.4,10.1,3.9l6.8-2.7
		c23.2-9.3,42.2-26.8,53.4-49.1c1.5-3.1,0.9-6.8-1.5-9.2l-6.3-6.3c12.8-2.7,25.8-4,38.8-4h3.6l3.9,16.4l-10.1,3.4
		c-11.9,4-18.7,16.4-15.7,28.6l12.4,49.6c0.4,1.4,1.1,2.7,2.1,3.7l13.9,13.9l4.1,57.6c1.2,16.5,8.8,31.9,21.2,42.8H261z
		 M426.3,468.6c-19.9,17-49.7,14.7-66.8-5.1c-6.6-7.7-10.6-17.3-11.3-27.4l-4.3-60.6c-0.1-1.9-1-3.7-2.3-5.1l-14.4-14.4l-11.9-47.5
		c-1-4.1,1.3-8.2,5.2-9.5l19-6.3c4.1-1.4,8.6,0.8,10.1,4.9l6,17.1c1.5,4.2,6,6.4,10.2,4.9c0.6-0.2,1.1-0.5,1.6-0.8l5.3-3.3l1.5,3
		l-11.9,11.9c-2.1,2.1-2.9,5.3-1.9,8.2l23,69l-12.5,10.4l10.2,12.3l44.5-36.8l35.4,45.6L426.3,468.6z"/>
	<circle class="st0" cx="112" cy="312" r="8"/>
	<path class="st0" d="M128,208h256c4.4,0,8-3.6,8-8V24c0-4.4-3.6-8-8-8H128c-4.4,0-8,3.6-8,8v176C120,204.4,123.6,208,128,208z
		 M136,32h240v160H136V32z"/>
	<path class="st0" d="M360,40H152c-4.4,0-8,3.6-8,8v128c0,4.4,3.6,8,8,8h208c4.4,0,8-3.6,8-8V48C368,43.6,364.4,40,360,40z M352,168
		H160V56h192V168z"/>
	<path class="st0" d="M256,155.8c28.6,0.1,56.1-11.3,76.3-31.6c3.1-3.1,3.1-8.2,0-11.3L287,67.7c-3.1-3.1-8.2-3.1-11.3,0
		c-10.9,10.9-28.5,10.9-39.4,0c-3.1-3.1-8.2-3.1-11.3,0L179.7,113c-3.1,3.1-3.1,8.2,0,11.3C199.9,144.6,227.4,155.9,256,155.8z
		 M208.3,107c3.7,3,7.7,5.7,11.9,7.9l7.5-14.1c-2.8-1.5-5.5-3.3-8.1-5.2l11.4-11.4c15,10.3,34.7,10.3,49.7,0l34.2,34.2
		c-34.2,28.6-84,28.6-118.1,0L208.3,107z"/>
	<path class="st0" d="M256,107.9c-4.8,0-9.5-0.6-14.1-1.7l-3.7,15.6c5.9,1.4,11.9,2.1,17.9,2.1V107.9z"/>
	<path class="st0" d="M291.8,114.9l-7.5-14.1c-4.5,2.4-9.2,4.2-14.1,5.4l3.7,15.6C280.1,120.2,286.1,117.9,291.8,114.9z"/>
</g>
</svg>
