<?xml version="1.0" encoding="utf-8"?>
<!-- Generator: Adobe Illustrator 25.0.0, SVG Export Plug-In . SVG Version: 6.00 Build 0)  -->
<svg version="1.1" id="_x3C_Layer_x3E_" xmlns="http://www.w3.org/2000/svg" xmlns:xlink="http://www.w3.org/1999/xlink" x="0px"
	 y="0px" viewBox="0 0 512 512" style="enable-background:new 0 0 512 512;" xml:space="preserve">
<style type="text/css">
	.st0{fill:#90257D;}
</style>
<g>
	<g>
		<g>
			<path class="st0" d="M356.5,339.1c-1.8,0-3.6-0.6-5.1-1.9c-9.2-7.7-19.5-13.1-30.5-16.1c-4.3-1.2-6.8-5.5-5.7-9.8
				c1.2-4.3,5.5-6.7,9.8-5.7c13.3,3.6,25.6,10.1,36.6,19.3c3.4,2.8,3.8,7.9,1,11.3C361,338.2,358.8,339.1,356.5,339.1L356.5,339.1z"
				/>
		</g>
	</g>
	<g>
		<g>
			<path class="st0" d="M318.5,488.9c-12.4,0-23.9-2-32.6-6.1c-9.8-4.6-16.3-11.8-18.7-20.7c-2.5-9.3-1.2-17.9,3.7-24.9
				c8.8-12.7,28.7-20,62.5-22.9c4.2-0.3,8.3,2.9,8.7,7.3s-2.9,8.3-7.3,8.7c-34.8,3.1-46.8,10.5-50.8,16.2c-1.4,2-3,5.3-1.3,11.5
				c1.2,4.3,4.5,7.8,10,10.4c16.5,7.7,47.6,5.6,70.8-4.9c4-1.8,8.8-0.1,10.6,4s0,8.8-4,10.6C354.3,485.2,335.5,488.9,318.5,488.9z"
				/>
		</g>
	</g>
	<g>
		<g>
			<path class="st0" d="M158.3,493.3c-10.2,0-19.9-0.9-28.1-2.7c-43.8-9.6-59.4-44.9-59.4-72.2c0-36,14.6-69.1,41.2-93.2
				c3.3-3,8.3-2.7,11.3,0.5c3,3.3,2.7,8.3-0.5,11.3c-23.2,21.1-36,50-36,81.4c0,21.3,12.3,48.9,46.8,56.5
				c26.1,5.7,74.3,0.2,91.3-14.2c5.1-4.4,5-7.6,4.9-8.7c-0.3-5.5-2.3-9.5-6.2-12.6c-12-9.4-40.1-9.9-83.5-1.5
				c-4.3,0.8-8.3-1.9-9.3-6c-0.9-3.9-8.5-38.7,9.4-53.6c3.4-2.8,8.4-2.4,11.3,1c2.8,3.4,2.4,8.4-1,11.3c-6.7,5.6-6.5,20.2-5.3,30.1
				c44.8-7.9,73-5.9,88.3,6c7.6,6,11.8,14.1,12.3,24.3c0.3,5.6-1.3,13.9-10.5,21.8C219.5,486.4,186.7,493.3,158.3,493.3L158.3,493.3
				z"/>
		</g>
	</g>
	<g>
		<g id="XMLID_299_">
			<g>
				<path class="st0" d="M234.4,350.7c-53.7,0-92.6-21.9-118.6-66.8C93,281,78.9,263.7,78.8,248c-0.1-9.7,5-17.1,13.5-20.7
					C75.5,182.7,79.8,133.1,104,95.8c26.3-40.4,70.6-64.5,118.8-64.5c27.3,0,53.9,8,76.8,23.1c64.3,42.4,81.2,138.1,53.4,191.7
					c4.7,16,1.5,35.6-8.9,53.3c-15.2,26-42.6,43.7-75,48.6C256.9,349.7,245.3,350.7,234.4,350.7z M222.7,47.3
					c-42.7,0-82,21.4-105.3,57.2c-22.6,34.8-25.2,83.9-6.8,125.3c1.1,2.4,0.9,5.2-0.5,7.4c-1.4,2.3-3.8,3.7-6.4,3.8
					c-9,0.4-8.9,5.3-8.9,6.9c0.1,7.9,9.5,19.7,26.3,20.3c2.8,0.1,5.4,1.7,6.7,4.2c14.6,26.8,41.6,62.3,106.7,62.3
					c10.1,0,20.9-0.9,32.1-2.5c27.7-4.2,50.8-19,63.6-40.8c8.7-14.9,11.1-31,6.5-43.1c-0.8-2.2-0.6-4.7,0.5-6.8
					c26.7-46.7,10.5-135.9-46.6-173.6C270.4,54.4,247,47.3,222.7,47.3L222.7,47.3z"/>
			</g>
		</g>
		<g id="XMLID_317_">
			<g>
				<path class="st0" d="M196.8,256.4c-3.9,0-7.8-0.6-11.4-1.7c-4.2-1.3-6.6-5.8-5.2-10c1.3-4.2,5.8-6.6,10-5.2
					c4.6,1.4,9.7,1.3,15.1-0.4c4.2-1.3,8.7,1,10,5.2c1.3,4.2-1,8.7-5.2,10C205.6,255.7,201.1,256.4,196.8,256.4z"/>
			</g>
		</g>
		<g id="XMLID_300_">
			<g>
				<path class="st0" d="M286.9,253.6c-1.4,0-2.8-0.1-4.4-0.3c-4.4-0.5-7.6-4.4-7.1-8.8c0.5-4.4,4.5-7.6,8.8-7.1
					c4.4,0.5,7.1-0.3,10.6-1.3c0,0,11.6-3.8,13,4.8s-8.5,10.5-8.5,10.5C296,252.5,292.1,253.6,286.9,253.6L286.9,253.6z"/>
			</g>
		</g>
		<g id="XMLID_318_">
			<g>
				<path class="st0" d="M223.3,131.8c-1,0-2,0-3.1-0.1c-20.8-1.4-36.7-19.4-35.3-40.3c1.2-17.6,16.4-31.1,33.9-29.7
					c4.4,0.3,7.7,4.1,7.5,8.5c-0.3,4.4-4.5,7.9-8.5,7.5c-9-0.7-16.4,6.1-16.9,14.8c-0.8,12,8.4,22.5,20.4,23.2
					c8,0.6,15.4-2,21.3-7.2c5.9-5.2,9.4-12.3,9.9-20.1c1.4-21.3-14.8-39.7-36.1-41.1c-4.4-0.3-7.7-4.1-7.4-8.5
					c0.3-4.4,3.7-8,8.5-7.5c14.6,1,27.9,7.6,37.5,18.5c9.6,11,14.4,25,13.4,39.6c-0.8,12.1-6.2,23.1-15.3,31.1
					C244.8,127.9,234.3,131.8,223.3,131.8L223.3,131.8z"/>
			</g>
		</g>
		<g>
			<g>
				<path class="st0" d="M249.6,311.2c-7.9,0-15.4-3.9-19.9-10.5c-2.5-3.7-1.5-8.6,2.1-11.1c3.6-2.4,8.6-1.5,11.1,2.1
					c1.6,2.4,4.3,3.7,7.2,3.5c2.9-0.2,5.4-1.9,6.6-4.5c1.9-4,6.7-5.6,10.7-3.7c4,1.9,5.6,6.7,3.7,10.7c-3.7,7.7-11.3,12.8-19.8,13.5
					C250.8,311.2,250.2,311.2,249.6,311.2L249.6,311.2z"/>
			</g>
		</g>
	</g>
	<g>
		<g>
			<path class="st0" d="M430.8,494.7h-48c-13.2,0-24-10.8-24-24v-99.2c0-10.5,5-20.5,13.4-26.9l1.2-1c4.5-3.3,7.1-8.5,7.1-14.1
				c0-2.7-0.6-6.7-3.5-10.5c-4.4-5.8-6.8-13-6.8-20.2c0-4.2,0.8-8.3,2.3-12.4c6.7-16.7,10.2-34.7,10.2-52.4v-3.4
				c0-13.2,10.8-24,24-24s24,10.8,24,24v3.4c0,17.7,3.5,35.8,10.1,52.2c1.6,4.3,2.3,8.4,2.3,12.6c0,7.2-2.4,14.4-6.7,20.2
				c-2.8,3.8-4,8.4-3.3,13.1c0.7,4.6,3.1,8.8,6.9,11.6l1.3,1c8.4,6.3,13.4,16.3,13.4,26.8v99.2C454.8,483.9,444,494.7,430.8,494.7
				L430.8,494.7z M406.8,222.7c-4.4,0-8,3.6-8,8v3.4c0,19.7-3.9,39.9-11.3,58.2c-0.8,2.1-1.2,4.4-1.2,6.6c0,3.8,1.2,7.5,3.5,10.5
				c4.4,5.8,6.7,12.8,6.7,20.2c0,10.6-5,20.7-13.5,26.9l-1.2,0.9c-4.4,3.3-7.1,8.6-7.1,14.1v99.2c0,4.4,3.6,8,8,8h48
				c4.4,0,8-3.6,8-8v-99.2c0-5.5-2.6-10.8-7-14.1l-1.3-1c-14.8-11-17.8-32.1-6.7-47c2.3-3,3.5-6.8,3.5-10.6c0-2.3-0.4-4.5-1.3-6.8
				c-7.3-18.1-11.2-38.3-11.2-58v-3.3C414.8,226.3,411.2,222.7,406.8,222.7z"/>
		</g>
	</g>
	<g>
		<g>
			<path class="st0" d="M446.8,462.7h-48c-4.4,0-8-3.6-8-8s3.6-8,8-8h40v-48h-40c-4.4,0-8-3.6-8-8s3.6-8,8-8h48c4.4,0,8,3.6,8,8v64
				C454.8,459.1,451.2,462.7,446.8,462.7z"/>
		</g>
	</g>
</g>
</svg>
