<?xml version="1.0" encoding="utf-8"?>
<!-- Generator: Adobe Illustrator 25.0.0, SVG Export Plug-In . SVG Version: 6.00 Build 0)  -->
<svg version="1.1" id="Capa_1" xmlns="http://www.w3.org/2000/svg" xmlns:xlink="http://www.w3.org/1999/xlink" x="0px" y="0px"
	 viewBox="0 0 512 512" style="enable-background:new 0 0 512 512;" xml:space="preserve">
<style type="text/css">
	.st0{fill:#90257D;}
</style>
<g>
	<path class="st0" d="M367.2,193.4h22.5c5.7,0,10.3-4.6,10.3-10.3v-15.8h15.8c5.7,0,10.3-4.6,10.3-10.3v-22.5
		c0-5.7-4.6-10.3-10.3-10.3h-15.8v-15.8c0-5.7-4.6-10.3-10.3-10.3h-22.5c-5.7,0-10.3,4.6-10.3,10.3v15.8h-15.8
		c-5.7,0-10.3,4.6-10.3,10.3V157c0,5.7,4.6,10.3,10.3,10.3h15.8v15.8C356.9,188.8,361.6,193.4,367.2,193.4L367.2,193.4z
		 M345.8,152.3v-13.2h15.8c5.7,0,10.3-4.6,10.3-10.3V113h13.2v15.8c0,5.7,4.6,10.3,10.3,10.3h15.8v13.2h-15.8
		c-5.7,0-10.3,4.6-10.3,10.3v15.8h-13.2v-15.8c0-5.7-4.6-10.3-10.3-10.3L345.8,152.3z"/>
	<path class="st0" d="M503.6,75.6c-9.3-18.1-25-31.5-44.3-37.7c-29.3-9.5-60.9-0.4-80.8,22.5c-19.7-22.9-51.2-31.9-80.4-22.6
		c-0.3-0.2-0.5-0.3-0.8-0.5c-6.7-3.7-14.1,0.5-23.5,5.8c-4.9,2.7-10.5,5.9-16,7.9c6-28.2,2.2-35.8-2.5-39.3
		c-1.8-1.4-6.6-4.1-13.6-0.3c-9.1,4.9-16.8,10.7-24.4,16.3c-14.5,10.9-28.3,21.2-50.1,23.5c-12.1,1.3-33.3,6.1-40,24.7
		c-0.3,0.8-0.5,1.6-0.7,2.4c-31.6,21.8-51,57.2-51,93.4c0,0.9,0,1.8,0,2.6c-6.6,0.6-12.8,3.4-17.9,8c-8.1,7.5-11.8,18.6-10.2,30.4
		c2.6,18.5,17.1,34.1,34.4,38.3c0.5,11.9,5.1,22.5,13.4,31.4c-22-0.3-41.9-3.8-56.2-10.1c-10.7-4.7-21.7-3.4-29.3,3.7
		c-8.4,7.8-11,21-6.6,33.7c4.3,12.2,21.2,40.7,86.3,46.9c-0.7,1.8-1.9,5.4-1.9,5.4c-1.5,4.5-2.9,8.9-4.1,13.3
		c-0.2,0.7-0.7,1.3-1.4,1.7c-6.9,4-13.4,8.4-19.1,13c-3.2,2.6-3.7,7.3-1.1,10.5c1.5,1.8,3.7,2.8,5.8,2.8c1.7,0,3.3-0.5,4.7-1.7
		c4.9-3.9,10.4-7.7,16.2-11.2c9.3,8.6,17.8,22,23.4,37.2c6.2,16.9,8.1,33.6,5.5,47.7l-64.2,10.2c-8.5,1.4-17.1-2.1-22.3-9
		l-15.3-20.3c-1.3-1.7-0.9-3.4-0.6-4.1c0.2-0.7,1-2.3,3-2.8c4.8-1.2,9.1-1.7,12.8-1.4c6.5,0.5,12.5-3.8,14.3-10.1
		c1.1-4,3.1-8.2,5.7-12.6c2.2-3.5,1-8.1-2.5-10.3c-3.5-2.2-8.2-1-10.3,2.5c-3.2,5.2-5.6,10.4-7.1,15.4c-5-0.2-10.6,0.4-16.6,1.9
		c-6.3,1.6-11.4,6.2-13.5,12.3c-2.2,6.1-1.1,12.9,2.8,18.1l15.3,20.3c8.6,11.3,22.6,17,36.6,14.7l64.5-10.2c0.4-0.1,0.8,0,1.2,0.1
		c2.7,0.8,21.7,12.2,64.7,12.2h10.6c47,0,62.5-12.8,66-12.3l64.5,10.2c14,2.2,28-3.4,36.6-14.7l15.3-20.3c3.9-5.2,5-12,2.8-18.1
		c-2.2-6.1-7.2-10.8-13.5-12.4c-6-1.5-11.5-2.1-16.5-1.9c-6.1-20.2-25.2-41-51.2-56.1c-0.7-0.4-1.2-1-1.4-1.7
		c-1.2-4.3-2.5-8.8-4.1-13.3c0,0,0-0.1,0-0.1c-0.6-1.8-1.2-3.5-1.9-5.3c65.1-6.2,82-34.7,86.3-46.9c4.4-12.7,1.9-25.9-6.6-33.7
		c-7.6-7.1-18.6-8.4-29.3-3.7c-14.4,6.3-34.3,9.8-56.5,10.1c8.4-8.8,13.2-19.4,13.7-31.4c13.2-3.2,24.7-13,30.6-25.6
		c2.7,2.2,25.1,20,34.4,27.5c3.6,2.9,8,4.3,12.4,4.3c4.4,0,8.8-1.4,12.4-4.3c9.7-7.8,44.1-35.1,51.6-41.2c3.2-2.6,3.7-7.3,1.1-10.5
		s-7.3-3.7-10.5-1.1c-7.4,6-41.9,33.3-51.6,41.2c-1.7,1.4-4.2,1.4-5.9,0c-9.4-7.5-35.4-28.2-39.7-31.7c0.6-10.5-3.1-20.3-10.5-27.1
		c-5.1-4.7-11.3-7.4-17.9-8c0.7-28.7-10.8-56.9-30.9-78.6c14.1-14.3,24.9-32.2,26.5-43.8c25.1-7.7,52.1,1.3,67.5,22.7
		c1.8,2.5,4.8,4.1,7.9,4.1c3.1,0,6.1-1.5,7.9-4.1c15.5-21.6,43-30.6,68.3-22.4c15.5,5,28.1,15.7,35.6,30.3c7.4,14.5,8.8,31,3.8,46.5
		c-5.4,16.7-15.5,30.8-34.7,48.7c-3,2.8-3.2,7.6-0.4,10.6c2.8,3,7.6,3.2,10.6,0.4c21-19.5,32.7-36,38.8-55.1
		C514.5,114.3,512.9,93.7,503.6,75.6L503.6,75.6z M62.5,210.7c-1-6.8,1-13.1,5.5-17.2c2.6-2.4,5.8-3.8,9.2-4.1
		c1.9,10.8,5.6,21.2,11.1,31.1c0.8,1.4,0.8,3,0.1,4.4c-1.9,3.9-3.4,7.6-4.5,11.2C74.2,232.9,64.3,223.6,62.5,210.7z M186.3,487.6
		c-21.6,0-39.7-3-53.9-8.9c6.8-35.6-10.9-78.9-34.1-99.7c0.6-2.4,1.4-4.8,2.1-7.2h182.4c0.8,2.4,1.5,4.8,2.1,7.2
		c-23.2,20.8-40.9,64.2-34.1,99.7c-14.2,5.9-32.3,8.9-53.9,8.9L186.3,487.6z M337.9,438.1c1.8,6.3,7.8,10.5,14.3,10
		c3.7-0.3,8,0.2,12.8,1.4c2,0.5,2.8,2.1,3,2.8s0.6,2.4-0.6,4.1L352,476.7c-5.2,6.9-13.8,10.3-22.3,9l-64.2-10.2
		c-2.6-14.1-0.8-30.8,5.5-47.7c5.6-15.2,14.1-28.6,23.4-37.2C327.7,410.3,336.1,431.9,337.9,438.1L337.9,438.1z M350,286.1
		c5.3-2.3,9.9-2,13.1,1c4,3.7,5.1,10.7,2.6,17.7c-2.7,7.6-16.2,32.8-78.7,37.4c-3.4,0.2-6.6,2.1-8.5,5c-1.8,2.8-2.2,6.4-1,9.6H105.7
		c1.2-3.2,0.8-6.7-1-9.6c-1.8-2.9-5-4.8-8.4-5.1c-62.5-4.6-76-29.8-78.7-37.4c-2.5-7-1.5-14,2.6-17.7c3.2-3,7.8-3.3,13.1-1
		c20.8,9.1,49.8,13,82,10.9c0.3,0.1,0.6,0.3,0.8,0.4c11.3,5.7,25.1,9.8,40.7,12.2c3,20,18.5,35.3,37.1,35.3
		c18.9,0,34.5-15.7,37.2-36.1c14.1-2.6,26.4-6.6,36.6-11.9C300,299,329.2,295.2,350,286.1L350,286.1z M172.4,311.3
		c6.2,0.5,12.6,0.7,19.2,0.7c8.3,0,16.2-0.4,23.7-1.1c-2.9,11-11.5,18.9-21.5,18.9C183.9,329.9,175.4,322.1,172.4,311.3L172.4,311.3
		z M315.2,193.4c4.5,4.1,6.5,10.4,5.5,17.2c-1.8,13-11.6,22.2-21.5,25.3c-1.1-3.6-2.5-7.3-4.5-11.2c-0.7-1.4-0.6-3,0.1-4.4
		c5.5-9.9,9.2-20.3,11.1-31.1C309.4,189.6,312.6,191,315.2,193.4L315.2,193.4z M281.7,213.1c-3.2,5.7-3.4,12.6-0.5,18.4
		c3.2,6.5,4.9,12.4,4.9,17.2c0,14.5-8.7,26.3-25.8,35c-17,8.6-41.4,13.3-68.8,13.3c-24.9,0-52.1-4.1-71-14.3c-0.1,0-0.1-0.1-0.2-0.1
		C106.4,275.1,97,264,97,248.8c0-4.8,1.7-10.8,4.9-17.2c2.9-5.8,2.7-12.7-0.5-18.4c-7.2-12.9-10.8-26.9-10.8-41.4
		c0-29.5,15.1-58.6,40-77.7c10.2,13.9,23.7,27.4,37.3,37.1c9,6.4,20.8,13.1,30.9,13.1c2.6,0,5.1-0.5,7.4-1.5
		c8.5-3.8,10.1-12.6,9.3-21c16.1,2.4,33.3-3.1,49.7-15.9c17.3,18.6,27.1,42.3,27.1,66C292.6,186.3,288.9,200.2,281.7,213.1
		L281.7,213.1z M261.4,89.6c-21.2,19.1-38,19.3-48.4,16.1c-3.5-1.1-7.4-0.2-10,2.3c-2.7,2.5-3.8,6.2-3,9.8c2.1,9,0.4,11.2,0.4,11.2
		c-1.2,0.8-8.8,0.1-22.5-9.4c-12.9-9-26.3-22.3-35.9-35.7c-0.6-0.9-0.8-2-0.5-3c2.9-8.1,12.7-13.4,27.5-14.9
		c25.9-2.7,42-14.8,57.5-26.4c6.5-4.9,12.6-9.5,19.5-13.5c0.1,4.9-0.9,14.4-4.3,28.7c-0.8,3.2,0.1,6.6,2.2,9.1
		c2.2,2.5,5.4,3.8,8.7,3.5c10.3-1,20.5-6.7,28.6-11.3c2-1.1,4.4-2.5,6.5-3.6C285.3,60.6,275.9,76.5,261.4,89.6z"/>
	<path class="st0" d="M148.4,195.7c-4.1,0-7.5,3.4-7.5,7.5v4.4c0,4.1,3.4,7.5,7.5,7.5s7.5-3.4,7.5-7.5v-4.4
		C155.9,199.1,152.5,195.7,148.4,195.7z"/>
	<path class="st0" d="M234.9,195.7c-4.1,0-7.5,3.4-7.5,7.5v4.4c0,4.1,3.4,7.5,7.5,7.5s7.5-3.4,7.5-7.5v-4.4
		C242.3,199.1,239,195.7,234.9,195.7z"/>
	<path class="st0" d="M165.8,184.1c2.1-3.5,1-8.2-2.5-10.3c-9.7-5.9-20-5.9-29.7,0c-3.5,2.1-4.7,6.8-2.5,10.3
		c2.1,3.5,6.8,4.7,10.3,2.5c4.9-3,9.3-3,14.2,0c1.2,0.7,2.5,1.1,3.9,1.1C161.9,187.7,164.4,186.4,165.8,184.1L165.8,184.1z"/>
	<path class="st0" d="M249.7,173.8c-9.7-5.9-20-5.9-29.7,0c-3.5,2.1-4.7,6.8-2.5,10.3c2.1,3.5,6.8,4.7,10.3,2.5c4.9-3,9.3-3,14.2,0
		c1.2,0.7,2.5,1.1,3.9,1.1c2.5,0,5-1.3,6.4-3.6C254.4,180.5,253.3,175.9,249.7,173.8z"/>
	<path class="st0" d="M211.2,226.3H172c-5.9,0-10.9,4.2-11.9,10.1c-0.4,2-0.5,4.1-0.5,6.1c0,18.6,14.4,33.8,32.1,33.8
		s32.1-15.2,32.1-33.8c0-2.1-0.2-4.1-0.5-6.1C222.1,230.5,217.1,226.3,211.2,226.3L211.2,226.3z M191.6,261.3
		c-9.4,0-17.1-8.4-17.1-18.8c0-0.4,0-0.8,0-1.2h34.1c0,0.4,0,0.8,0,1.2C208.7,252.9,201,261.3,191.6,261.3L191.6,261.3z"/>
</g>
</svg>
