<?xml version="1.0" encoding="utf-8"?>
<!-- Generator: Adobe Illustrator 25.0.0, SVG Export Plug-In . SVG Version: 6.00 Build 0)  -->
<svg version="1.1" id="Capa_1" xmlns="http://www.w3.org/2000/svg" xmlns:xlink="http://www.w3.org/1999/xlink" x="0px" y="0px"
	 viewBox="0 0 512 512" style="enable-background:new 0 0 512 512;" xml:space="preserve">
<style type="text/css">
	.st0{fill:#90257D;}
</style>
<g>
	<path class="st0" d="M460.3,232.1l-2.8-2.5c-6.5-5.6-16.1-5.5-22.5,0.3l-44.7,40.7c-1,0.9-2.1,1.7-3.3,2.5l-12.3-35.3
		c-1.4-3.9-5.6-6-9.5-4.6c-3.9,1.4-6,5.6-4.6,9.5l11.6,33.4h-50.7v-19.1c0-4.1-3.4-7.5-7.5-7.5s-7.5,3.4-7.5,7.5V276h-39.3
		c0-0.1,0-0.2,0-0.3v-8.4c0-6.2-5.1-11.3-11.3-11.3h-27.6c-5.4,0-10.7,2.2-14.5,6.1l-27.9,28.3c-1.3,1.1-3,1.7-4.7,1.7h-26v-34
		c0-3.2-2.1-6.1-5.1-7.1c-3.1-1-6.4,0-8.4,2.6L128.4,271l-39.2-23.7l32.8-50.1c3.7-5.6,9.9-8.9,16.6-8.9h43.1
		c5.9,24.7,28.1,42.6,54.1,42.6s48.2-17.9,54.1-42.6h37.6c8.4,0,15.9,5.3,18.7,13.3l2.8,7.9c1.4,3.9,5.7,6,9.5,4.6
		c3.9-1.4,6-5.6,4.6-9.5l-2.8-7.9c-4.9-14-18.1-23.4-32.9-23.4h-54.1v-11.8c9.1-4.9,15.8-13.6,18.3-23.8c7.4-0.8,14.7-4,20.5-9.1
		c7.2-6.3,11.1-14.8,11.1-23.9c0-5.8-1.2-10.8-3.4-15V64.6c0-35.6-29-64.6-64.6-64.6h-38.9c-35.6,0-64.6,29-64.6,64.6v25.2
		c-2.2,4.1-3.4,9.2-3.4,15c0,9.1,3.9,17.6,11.1,23.9c5.8,5.1,13.1,8.3,20.5,9.1c2.5,10.3,9.3,18.9,18.3,23.8v11.8h-59.6
		c-11.8,0-22.6,5.9-29.1,15.7l-59.2,90.2c-5.2,7.9-7.6,17.1-6.9,26.5c0.3,4.1,3.9,7.2,8,6.9c4.1-0.3,7.2-3.9,6.9-8
		c-0.4-6.1,1.1-12.1,4.5-17.2L81,259.9l38.5,23.2l-8.9,11.9c-1.7,2.3-2,5.3-0.7,7.9c1.3,2.5,3.9,4.1,6.7,4.1h64.6
		c5.5,0,10.7-2,14.8-5.6c0.1-0.1,0.2-0.2,0.4-0.3l28.1-28.5c1-1,2.4-1.6,3.8-1.6h23.9v4.7c0,3.9-3.2,7.1-7.1,7.1h-12.6
		c-2.8,0-5.4,1.6-6.7,4.2l-15.8,31.8c-3.2,6.4-9.1,10.6-16,11.6c-0.1,0-0.2,0-0.3,0c-2.7,0.4,3,0.2-107.6,0.2
		c-3.5,0-6.9-0.6-10.1-1.9c-1.1-0.4-2.1-0.9-3.2-1.5c-3.6-2-8.2-0.6-10.2,3s-0.6,8.2,3,10.2c1.6,0.8,3.2,1.6,4.9,2.2
		c5,1.9,10.2,2.9,15.5,2.9H140v59.7H62.3c-4.1,0-7.5,3.4-7.5,7.5s3.4,7.5,7.5,7.5h129.5c0,2.7,0.1,61.3,0.1,76.8H62.3
		c-4.1,0-7.5,3.4-7.5,7.5s3.4,7.5,7.5,7.5h208.1c20.4,0,39.2-10.2,50.4-27.3c11.1-17.1,12.9-38.5,4.6-57.1l-4-9.1v-84.2l11.2-1
		l0.7,5c1.1,7.4,7.5,12.8,14.8,12.8c0,0,0.1,0,0.1,0l13.4,47.6c2.2,7.7,7.2,14.1,14.3,17.9c7.1,3.9,15.2,4.6,22.8,2.3
		c7.7-2.4,13.9-7.6,17.6-14.7c3.7-7.1,4.3-15.2,1.7-22.8l-13-38.8c5.8-1.8,9.8-7,10.4-13c0.3,0,0.6,0,1,0c7,0,13.7-2.3,19.3-6.6
		c6.8-5.3,11.2-12.9,12.2-21.5l0.9-7.8l17-31.8C471.2,251.8,468.9,239.5,460.3,232.1L460.3,232.1z M193.8,129V71.9
		c0-6.7,4.5-12.6,10.8-14.4l6.2,11.3c6.6,12,20.2,18.9,33.8,17l33.1-4.6c0,0,0,48.5,0,48.9c0,0,0,0,0,0.1c-0.6,11.7-10.3,21-22.1,21
		H216C203.8,151.1,193.8,141.2,193.8,129L193.8,129z M302.3,117.4c-2.7,2.4-6.1,4.1-9.5,4.9v-24c3.8-3.9,8.2-5.2,10.9-4.2
		c3,1,4.6,4.9,4.6,10.7C308.4,110.8,305.1,115,302.3,117.4z M216.3,15h38.9c27.4,0,49.7,22.3,49.7,49.6V79c-4-0.6-8.1,0-12.1,1.6V80
		c0-4-1.7-7.9-4.8-10.5s-7.1-3.9-11.1-3.3l-34.3,4.7c-7.5,1-15-2.7-18.7-9.4l-6.8-12.4c-2.8-5.1-8.5-7.8-14.1-6.7
		c-14.1,2.7-24.3,15.1-24.3,29.4v8.8c-4-1.6-8.1-2.2-12.1-1.6V64.6C166.7,37.3,189,15,216.3,15L216.3,15z M163.3,104.8
		c0-5.8,1.7-9.6,4.6-10.6c2.7-0.9,7.1,0.3,10.9,4.2v24c-3.4-0.8-6.8-2.6-9.5-4.9C166.6,115,163.3,110.8,163.3,104.8L163.3,104.8z
		 M203.9,188.4c5.1,0,9.3-4.2,9.3-9.3V166c3,0.2,45,0,45.2,0v13.1c0,5.1,4.2,9.3,9.3,9.3h6.6c-5.5,16.2-20.8,27.6-38.6,27.6
		s-33.1-11.4-38.6-27.6H203.9z M136.4,285.5l3.7-4.9V292h-8.6L136.4,285.5z M155,345.5h34.2l16.8,59.7c-10.4,0-38.9,0-51,0V345.5z
		 M308.2,476.5c-8.4,12.8-22.5,20.5-37.8,20.5h-63.5c-0.1-13.1-0.2-74.1-0.2-76.8h3.5c3.8,0,7.2-1.7,9.5-4.7c2.3-3,3-6.8,2-10.4
		L210.9,367h71.4l29.4,66.7C317.9,447.6,316.6,463.7,308.2,476.5z M306.4,384.5l-20.7-46.9l0.1-0.1l20.6-1.8V384.5z M400.4,328.2
		l-52.3,7.8l-1.1-7.5c-0.7-4.8,2.6-9.3,7.4-10c36.7-5.5,35-5.3,36.2-5.3c4.2,0,8,3.1,8.7,7.5C399.3,320.8,400.5,328.7,400.4,328.2
		L400.4,328.2z M402.9,397.3c-1.8,3.5-4.9,6.1-8.6,7.2c-3.8,1.2-7.7,0.8-11.2-1.1c-3.5-1.9-5.9-5-7-8.8L363.2,349l26.8-4l13.8,41.1
		C405,389.8,404.7,393.8,402.9,397.3z M452.6,254.7l-17.7,33.1c-0.4,0.8-0.7,1.7-0.8,2.7l-1.1,9.2c-0.5,4.5-2.8,8.6-6.4,11.4
		c-3.6,2.8-8.1,4-12.6,3.3l-0.8-0.1c-1.6-4.5-4.4-8.5-8.3-11.4c-5.1-3.8-11.4-5.3-17.7-4.4l-34.9,5.2c-8.5,1.3-15.3,7-18.4,14.4
		l-49.3,4.4c-4.8,0.4-9.2,3.2-11.7,7.3c-2.5,4.2-2.8,9.3-0.8,13.7l3.7,8.4h-69l-2.5-9c8.2-3.2,15.1-9.4,19.2-17.6l13.8-27.7h7.9
		c6.2,0,11.8-2.6,15.8-6.7h115.3c9,0,17.6-3.3,24.2-9.4l44.7-40.7c0.7-0.7,1.8-0.7,2.6,0l2.8,2.4
		C453.7,246.2,454.6,250.9,452.6,254.7L452.6,254.7z"/>
</g>
</svg>
