<?xml version="1.0" encoding="utf-8"?>
<!-- Generator: Adobe Illustrator 25.0.0, SVG Export Plug-In . SVG Version: 6.00 Build 0)  -->
<svg version="1.1" id="Capa_1" xmlns="http://www.w3.org/2000/svg" xmlns:xlink="http://www.w3.org/1999/xlink" x="0px" y="0px"
	 viewBox="0 0 512 512" style="enable-background:new 0 0 512 512;" xml:space="preserve">
<style type="text/css">
	.st0{fill:#90257D;}
</style>
<g>
	<g>
		<path class="st0" d="M136.9,254h12c4.1,0,7.5-3.4,7.5-7.5s-3.4-7.5-7.5-7.5h-12c-4.1,0-7.5,3.4-7.5,7.5S132.8,254,136.9,254z"/>
		<path class="st0" d="M174.6,254h12c4.1,0,7.5-3.4,7.5-7.5s-3.4-7.5-7.5-7.5h-12c-4.1,0-7.5,3.4-7.5,7.5S170.4,254,174.6,254z"/>
		<path class="st0" d="M212.2,254h12c4.1,0,7.5-3.4,7.5-7.5s-3.4-7.5-7.5-7.5h-12c-4.1,0-7.5,3.4-7.5,7.5S208.1,254,212.2,254z"/>
		<path class="st0" d="M278.5,254h12c4.1,0,7.5-3.4,7.5-7.5s-3.4-7.5-7.5-7.5h-12c-4.1,0-7.5,3.4-7.5,7.5S274.4,254,278.5,254z"/>
		<path class="st0" d="M316.2,254h12c4.1,0,7.5-3.4,7.5-7.5s-3.4-7.5-7.5-7.5h-12c-4.1,0-7.5,3.4-7.5,7.5S312.1,254,316.2,254z"/>
		<path class="st0" d="M365.9,239h-12c-4.1,0-7.5,3.4-7.5,7.5s3.4,7.5,7.5,7.5h12c4.1,0,7.5-3.4,7.5-7.5S370,239,365.9,239z"/>
		<path class="st0" d="M249.6,237.7c4.1,0,7.5-3.4,7.5-7.5v-12c0-4.1-3.4-7.5-7.5-7.5s-7.5,3.4-7.5,7.5v12
			C242.1,234.3,245.4,237.7,249.6,237.7L249.6,237.7z"/>
		<path class="st0" d="M472.2,26.1c-11.2-11.2-29.5-11.2-40.7,0l-24.8,24.8C371.4,18,325.9,0,277.7,0h-56.3
			C178.6,0,138,14.1,104.2,40.7c-3.3,2.6-3.8,7.3-1.3,10.5c2.6,3.3,7.3,3.8,10.5,1.3C144.6,28,182,15,221.4,15h56.3
			c44.2,0,85.9,16.5,118.4,46.5l-61.9,61.9c-18.6-10.3-39.6-15.7-61.1-15.7h-47.2c-69.8,0-126.6,56.8-126.6,126.6v26.5
			c-12,0.7-23,4.7-32.3,11.2c-13.5-25.2-20.5-53.3-20.5-81.9c0-41.9,15.2-82.5,42.8-114.3c2.7-3.1,2.4-7.9-0.8-10.6
			c-3.1-2.7-7.9-2.4-10.6,0.8c-30,34.6-46.4,78.6-46.4,124.1c0,32.3,8.3,64,24,92.2c-9.9,11.2-15.9,25.9-15.9,41.9
			c0,12.5,3.7,24.5,10.6,34.9c1.4,2.2,3.8,3.4,6.3,3.4c1.4,0,2.9-0.4,4.1-1.3c3.5-2.3,4.4-6.9,2.1-10.4c-5.3-7.9-8.1-17.2-8.1-26.6
			c0-25.5,19.8-46.4,44.7-48.3v44.8c0,17.7,2.3,35.1,6.8,51.9H103c-5.6,0-11.1-1-16.4-2.9c-3.9-1.4-8.2,0.6-9.6,4.5s0.6,8.2,4.5,9.6
			c6.9,2.5,14.1,3.8,21.5,3.8h7.7c5.8,16.5,13.8,32.2,23.8,46.8c22.5,32.8,53.8,57.9,90.5,72.8c7.9,3.2,16.2,4.8,24.6,4.8
			c8.3,0,16.6-1.6,24.6-4.8c36.7-14.9,68-40,90.5-72.8c10-14.6,18-30.4,23.8-46.8h7.7c26.6,0,50.6-16.9,59.7-42
			c1.4-3.9-0.6-8.2-4.5-9.6c-3.9-1.4-8.2,0.6-9.6,4.5c-6.9,19.2-25.3,32.1-45.6,32.1h-3.1c4.5-16.8,6.8-34.2,6.8-51.9v-44.8
			c19.6,1.5,36.9,15.2,42.7,34.4c1,3.2,4,5.3,7.2,5.3c0.7,0,1.5-0.1,2.2-0.3c4-1.2,6.2-5.4,5-9.4c-2.7-8.9-7.3-16.9-13.2-23.6
			c15.8-28.2,24.1-59.9,24.1-92.2c0-33.4-8.7-65.5-24.9-93.8l29.4-29.4C483.4,55.6,483.4,37.3,472.2,26.1L472.2,26.1z M225.9,122.6
			h47.2c17.4,0,34.5,4.1,50,11.8l-15.7,15.7c-3.4,3.4-5.3,7.8-5.7,12.3c-10.1-2.5-20.6-3.8-31.1-3.8h-42.2
			c-49.3,0-92.2,27.7-113.9,68.4C118.2,168.9,166.8,122.6,225.9,122.6L225.9,122.6z M308.4,179l10.9,10.9l-13.8,13.8
			c-3,3-7.9,3-10.9,0c-3-3-3-7.9,0-10.9L308.4,179z M352.2,425.9c-2,2.9-4.1,5.7-6.2,8.5c-2.7-1.4-6-1-8.4,1.1
			c-2.9,2.6-3.3,7-1,10.1c-18.8,20.8-42,37.1-68.1,47.7c-3.7,1.5-7.6,2.5-11.4,3.1v-7.6c0-4.1-3.4-7.5-7.5-7.5s-7.5,3.4-7.5,7.5v7.6
			c-3.9-0.6-7.7-1.6-11.4-3.1c-26.2-10.6-49.3-26.9-68.1-47.7c2.3-3.1,2-7.5-1-10.1c-2.4-2.1-5.7-2.4-8.4-1.1
			c-2.1-2.8-4.2-5.6-6.2-8.5c-21.3-31-32.6-67.4-32.6-105.2v-1c2.9-0.6,5.2-2.9,5.8-5.9c0.8-4-1.8-7.9-5.8-8.7v-17.1v0
			c0-63,51.2-114.2,114.2-114.2h13.6v4.5c0,4.1,3.4,7.5,7.5,7.5s7.5-3.4,7.5-7.5v-4.5h13.6c6.7,0,13.4,0.6,20,1.8l-6.7,6.7
			c-7,7-8.4,17.4-4.4,25.9L268,219.7c-2.9,2.9-2.9,7.7,0,10.6c1.5,1.5,3.4,2.2,5.3,2.2s3.8-0.7,5.3-2.2l11.6-11.6
			c3,1.5,6.4,2.3,9.8,2.3c6.1,0,11.8-2.4,16-6.6l17.7-17.7c0.1,0,0.3,0,0.4,0c1.5,0,2.9-0.2,4.3-0.5c29.1,21.5,46.3,55.6,46.3,91.8
			v0V305c-4,0.8-6.6,4.7-5.8,8.7c0.6,3.1,2.9,5.3,5.8,5.9v1C384.8,358.5,373.6,394.8,352.2,425.9L352.2,425.9z M351.6,187.3
			l14.6-14.6c10.8,16.3,17.1,34.8,18.3,54.4C376.5,211.9,365.3,198.3,351.6,187.3z M452.7,190c0,28.6-7.1,56.8-20.6,82
			c-9.4-6.5-20.5-10.5-32.3-11.2v-26.5c0-26.2-7.9-51.1-22.7-72.4l54.7-54.7C445.4,132.4,452.7,160.7,452.7,190z M461.6,56.2
			L337.5,180.2c-1.8,1.8-4.8,1.8-6.6,0L318,167.4c-1.8-1.8-1.8-4.8,0-6.6L442.1,36.7c2.7-2.7,6.2-4,9.7-4c3.5,0,7,1.3,9.7,4
			C466.9,42.1,466.9,50.8,461.6,56.2L461.6,56.2z"/>
		<path class="st0" d="M285.3,392.5h-71.5c-4.1,0-7.5,3.4-7.5,7.5s3.4,7.5,7.5,7.5h71.5c4.1,0,7.5-3.4,7.5-7.5
			S289.4,392.5,285.3,392.5z"/>
		<path class="st0" d="M249.6,334.6c4.1,0,7.5-3.4,7.5-7.5s-3.4-7.5-7.5-7.5c-14.2,0-25.7,11.5-25.7,25.7s11.5,25.7,25.7,25.7
			c4.1,0,7.5-3.4,7.5-7.5s-3.4-7.5-7.5-7.5c-5.9,0-10.7-4.8-10.7-10.7S243.6,334.6,249.6,334.6L249.6,334.6z"/>
		<path class="st0" d="M220,281.7c-2.9-2.9-7.7-2.9-10.6,0c-6.6,6.6-15.3,10.2-24.5,10.2s-18-3.6-24.5-10.2c-2.9-2.9-7.7-2.9-10.6,0
			c-2.9,2.9-2.9,7.7,0,10.6c9.4,9.4,21.9,14.6,35.1,14.6s25.7-5.2,35.1-14.6C222.9,289.4,222.9,284.6,220,281.7z"/>
		<path class="st0" d="M349.4,281.7c-2.9-2.9-7.7-2.9-10.6,0c-6.6,6.6-15.3,10.2-24.5,10.2c-9.3,0-18-3.6-24.5-10.2
			c-2.9-2.9-7.7-2.9-10.6,0c-2.9,2.9-2.9,7.7,0,10.6c9.4,9.4,21.9,14.6,35.1,14.6c13.3,0,25.7-5.2,35.1-14.6
			C352.3,289.4,352.3,284.6,349.4,281.7L349.4,281.7z"/>
		<path class="st0" d="M167.5,360.5c1.2,0,2.4-0.3,3.5-0.9c3.7-1.9,5.1-6.4,3.2-10.1c-1.9-3.7-4.1-7.3-6.6-10.7
			c-2.4-3.4-7.1-4.1-10.5-1.7c-3.4,2.4-4.1,7.1-1.7,10.5c2,2.8,3.9,5.7,5.4,8.8C162.2,359,164.8,360.5,167.5,360.5L167.5,360.5z"/>
		<path class="st0" d="M149.3,320.4c-3.3-2.5-6.9-4.8-10.6-6.7c-3.6-2-8.2-0.6-10.2,3c-2,3.6-0.6,8.2,3,10.2c3,1.6,6,3.5,8.7,5.6
			c1.3,1,2.9,1.5,4.5,1.5c2.3,0,4.6-1,6-3C153.3,327.5,152.6,322.8,149.3,320.4L149.3,320.4z"/>
		<path class="st0" d="M173.8,368.1c-4.1,0.7-6.8,4.6-6.1,8.7c0.6,3.4,0.9,6.8,1,10.3c0.1,4.1,3.4,7.3,7.5,7.3c0.1,0,0.1,0,0.2,0
			c4.1-0.1,7.4-3.6,7.3-7.7c-0.1-4.2-0.5-8.4-1.3-12.5C181.8,370.1,177.9,367.4,173.8,368.1L173.8,368.1z"/>
		<path class="st0" d="M175.4,403.2c-4-1.1-8.1,1.2-9.3,5.2c-0.9,3.3-2.1,6.6-3.5,9.7c-1.7,3.8,0,8.2,3.8,9.9c1,0.5,2,0.7,3.1,0.7
			c2.9,0,5.6-1.6,6.8-4.4c1.7-3.8,3.2-7.8,4.3-11.8C181.7,408.5,179.4,404.4,175.4,403.2z"/>
		<path class="st0" d="M360.4,313.6c-3.7,2-7.2,4.2-10.6,6.7c-3.3,2.5-4,7.2-1.5,10.5c1.5,2,3.7,3,6,3c1.6,0,3.1-0.5,4.5-1.5
			c2.8-2.1,5.7-3.9,8.7-5.5c3.6-2,5-6.5,3.1-10.2C368.6,313,364.1,311.7,360.4,313.6L360.4,313.6z"/>
		<path class="st0" d="M322.8,394.3c4,0,7.4-3.2,7.5-7.3c0.1-3.5,0.5-6.9,1-10.3c0.7-4.1-2-8-6.1-8.7c-4.1-0.7-8,2-8.7,6.1
			c-0.7,4.1-1.1,8.3-1.3,12.5c-0.1,4.1,3.1,7.6,7.3,7.7C322.7,394.3,322.8,394.3,322.8,394.3z"/>
		<path class="st0" d="M332.9,408.4c-1.1-4-5.3-6.3-9.3-5.2c-4,1.1-6.3,5.3-5.2,9.3c1.1,4,2.6,8,4.3,11.8c1.3,2.8,4,4.4,6.8,4.4
			c1,0,2.1-0.2,3.1-0.7c3.8-1.7,5.5-6.1,3.8-9.9C335.1,414.9,333.9,411.7,332.9,408.4L332.9,408.4z"/>
		<path class="st0" d="M342,337.2c-3.4-2.4-8-1.7-10.5,1.7c-2.4,3.4-4.7,7-6.6,10.6c-1.9,3.7-0.5,8.2,3.2,10.1
			c1.1,0.6,2.3,0.9,3.5,0.9c2.7,0,5.3-1.5,6.7-4c1.6-3,3.4-6,5.4-8.8C346.1,344.3,345.4,339.6,342,337.2L342,337.2z"/>
		<path class="st0" d="M249.6,291.5c4.1,0,7.5-3.4,7.5-7.5v-12c0-4.1-3.4-7.5-7.5-7.5s-7.5,3.4-7.5,7.5v12
			C242.1,288.1,245.4,291.5,249.6,291.5L249.6,291.5z"/>
		<path class="st0" d="M249.6,428.4c-4.1,0-7.5,3.4-7.5,7.5v12c0,4.1,3.4,7.5,7.5,7.5s7.5-3.4,7.5-7.5v-12
			C257.1,431.8,253.7,428.4,249.6,428.4L249.6,428.4z"/>
	</g>
</g>
</svg>
