<?xml version="1.0" encoding="utf-8"?>
<!-- Generator: Adobe Illustrator 25.0.0, SVG Export Plug-In . SVG Version: 6.00 Build 0)  -->
<svg version="1.1" id="Capa_1" xmlns="http://www.w3.org/2000/svg" xmlns:xlink="http://www.w3.org/1999/xlink" x="0px" y="0px"
	 viewBox="0 0 512 512" style="enable-background:new 0 0 512 512;" xml:space="preserve">
<style type="text/css">
	.st0{fill:#90257D;}
</style>
<g>
	<g>
		<path class="st0" d="M492.3,168.2c-1.8-3.7-6.3-5.3-10-3.4c-3.7,1.8-5.3,6.3-3.4,10c15,30.6,18.2,62.1,18.2,83.1
			c0,28.4-5.9,81.9-45.4,121.4c-12.6,12.6-29.4,19.5-47.2,19.5c-17.8,0-34.6-6.9-47.2-19.5c-12.6-12.6-19.5-29.4-19.5-47.2
			c0-11.4,2.8-22.3,8.1-32c0.2-0.2,0.3-0.5,0.4-0.7c3-5.2,6.6-10.1,11-14.5c2.6-2.6,4.8-5.5,6.5-8.5c0,0,0.1-0.1,0.1-0.1
			c0.4-0.8,0.8-1.5,1.2-2.3c7.8,4.7,12.4,12,14.7,16.4c1.3,2.6,4,4.1,6.7,4.1c1.1,0,2.3-0.3,3.4-0.8c3.7-1.9,5.1-6.4,3.3-10.1
			c-5.8-11.3-14.3-19.8-24.5-24.7c0-0.3,0-0.7,0-1c0-1.9-0.1-3.7-0.4-5.5c10.3-4.8,19-13.4,24.9-24.9c1.9-3.7,0.4-8.2-3.3-10.1
			c-3.7-1.9-8.2-0.4-10.1,3.3c-2.5,4.9-7.7,12.9-16.7,17.5c-0.3-0.6-0.7-1.1-1.1-1.6c-0.1-0.1-0.2-0.3-0.3-0.4
			c-1.3-1.9-2.8-3.6-4.5-5.3c-26-26-26-68.3,0-94.4c12.6-12.6,29.4-19.5,47.2-19.5s34.6,6.9,47.2,19.5c3.2,3.2,6.3,6.6,9.2,10.2
			c2.6,3.2,7.4,3.7,10.6,1.1c3.2-2.6,3.7-7.3,1.1-10.6c-3.2-3.9-6.6-7.7-10.2-11.3c-31.9-31.9-83.7-31.9-115.6,0
			c-26.9,26.9-31.1,68-12.6,99.3l-10.1-3.5c-10.8-3.8-19.8-11.3-25.5-21.2l-14-24.6c-4-7-6.1-14.9-6.1-22.9V66.7
			c0-12.2-9.4-22.2-21.3-22.8c-6.2-0.3-12,1.9-16.5,6.2c-4.4,4.2-6.9,10.1-6.9,16.2v86.6c0,8-2.1,16-6.1,22.9l-14,24.6
			c-5.7,9.9-14.7,17.4-25.5,21.2l-10.1,3.5c7.4-12.4,11.3-26.7,11.3-41.5c0-21.8-8.5-42.4-23.9-57.8s-36-23.9-57.8-23.9
			s-42.4,8.5-57.8,23.9C6.5,169.1,0,227.1,0,257.9c0,26.7,5,77.7,38.6,119.5c2.6,3.2,7.3,3.8,10.5,1.2c3.2-2.6,3.8-7.3,1.2-10.5
			C19.6,329.7,15,282.6,15,257.9c0-28.4,5.9-81.9,45.4-121.4c12.6-12.6,29.4-19.5,47.2-19.5c17.8,0,34.6,6.9,47.2,19.5
			s19.5,29.4,19.5,47.2s-6.9,34.6-19.5,47.2c-1.7,1.7-3.2,3.5-4.5,5.3c-0.1,0.1-0.2,0.2-0.3,0.4c-0.4,0.5-0.7,1.1-1.1,1.6
			c-8.9-4.6-14.2-12.6-16.7-17.5c-1.9-3.7-6.4-5.1-10.1-3.3c-3.7,1.9-5.1,6.4-3.3,10.1c5.9,11.4,14.5,20.1,24.9,24.9
			c-0.3,1.8-0.4,3.7-0.4,5.5c0,0.3,0,0.7,0,1c-10.2,4.9-18.7,13.4-24.5,24.7c-1.9,3.7-0.4,8.2,3.3,10.1c1.1,0.6,2.3,0.8,3.4,0.8
			c2.7,0,5.4-1.5,6.7-4.1c2.3-4.5,6.9-11.7,14.7-16.4c0.4,0.8,0.8,1.6,1.3,2.4c0.1,0.1,0.1,0.2,0.2,0.3c1.7,2.9,3.8,5.7,6.3,8.2
			c4.4,4.4,8,9.2,11,14.5c0.1,0.3,0.3,0.5,0.4,0.8c5.3,9.7,8.1,20.6,8.1,32c0,17.8-6.9,34.6-19.5,47.2
			c-21.3,21.3-54.3,25.7-80.4,10.7c-3.6-2.1-8.2-0.8-10.2,2.8c-2.1,3.6-0.8,8.2,2.8,10.2c12.7,7.3,26.7,10.8,40.6,10.8
			c21.2,0,42.2-8.2,57.9-23.9c15.4-15.4,23.9-36,23.9-57.8c0-8.3-1.2-16.4-3.6-24.1l1.1,0.3c6.6,2.1,11.1,8.1,11.1,15.1v122.3
			c0,12.3,10,22.4,22.4,22.4s22.4-10,22.4-22.4V323.4c0-26.6-17.1-49.8-42.4-57.8l-1.2-0.4l3.9-1.4c21-7.3,38.6-22,49.6-41.3
			l3.6-6.3l3.6,6.3c11,19.3,28.6,34,49.6,41.3l4,1.4l-1.2,0.4c-25.4,8-42.4,31.2-42.4,57.8v122.3c0,12.3,10,22.4,22.4,22.4
			s22.4-10,22.4-22.4V323.4c0-6.9,4.4-13,11.1-15.1l1.1-0.3c-2.4,7.7-3.6,15.8-3.6,24.1c0,21.8,8.5,42.4,23.9,57.8
			c15.9,15.9,36.9,23.9,57.8,23.9c20.9,0,41.9-8,57.8-23.9c43.3-43.3,49.7-101.3,49.7-132C512,235.3,508.6,201.3,492.3,168.2z
			 M227.6,323.4v122.3c0,4.1-3.3,7.4-7.4,7.4c-4.1,0-7.4-3.3-7.4-7.4V323.4c0-13.5-8.7-25.3-21.6-29.4l-13.8-4.3
			c-2.9-4.8-6.3-9.3-10.2-13.4l7.9-2.8l20.5,6.4C214.7,285.9,227.6,303.4,227.6,323.4z M272.6,215.2l-8.8-15.4
			c-1.6-2.8-4.6-4.5-7.8-4.5s-6.2,1.7-7.8,4.5l-8.8,15.4c-9.2,16.1-23.9,28.4-41.5,34.6L159,263.3c-0.4-1.7-0.7-3.6-0.7-5.4
			c0-3.9,0.9-7.6,2.8-10.9l31.9-11.1c14.2-5,26.1-14.9,33.6-27.9l14-24.6c5.3-9.2,8.1-19.7,8.1-30.4V66.3c0-2,0.8-3.9,2.3-5.3
			c1.5-1.4,3.4-2.1,5.5-2c3.9,0.2,7,3.7,7,7.8v86.2c0,10.6,2.8,21.1,8.1,30.4l14,24.6c7.4,13.1,19.4,23,33.6,27.9l31.9,11.2
			c1.8,3.3,2.8,7,2.8,10.9c0,1.9-0.2,3.7-0.7,5.5l-38.9-13.6C296.6,243.6,281.8,231.3,272.6,215.2z M320.8,294
			c-12.9,4-21.6,15.8-21.6,29.4v122.3c0,4.1-3.3,7.4-7.4,7.4c-4.1,0-7.4-3.3-7.4-7.4V323.4c0-20,12.8-37.5,31.9-43.5l20.5-6.4
			l7.9,2.8c-3.9,4.2-7.3,8.6-10.2,13.4L320.8,294z"/>
	</g>
</g>
</svg>
