<?xml version="1.0" encoding="utf-8"?>
<!-- Generator: Adobe Illustrator 25.0.0, SVG Export Plug-In . SVG Version: 6.00 Build 0)  -->
<svg version="1.1" id="Capa_1" xmlns="http://www.w3.org/2000/svg" xmlns:xlink="http://www.w3.org/1999/xlink" x="0px" y="0px"
	 viewBox="0 0 512 512" style="enable-background:new 0 0 512 512;" xml:space="preserve">
<style type="text/css">
	.st0{fill:#90257D;}
</style>
<g>
	<path class="st0" d="M421.1,414.8h-36.5l-133.2-37.2c-11.9-3.3-19.2-13.5-22.1-31.2c-2.8-16.4-1.2-35.4,0-49.2L253.5,0H42.4
		l24.5,351.8l-16.3,91.3c-2.7,15.2,1.7,30.5,12.4,43.3c13.2,15.7,34.3,25.5,55,25.5H247v-15H117.9c-16.5,0-33.1-7.7-43.5-20.1
		c-5.5-6.6-11.5-17.3-9.1-31l16.7-93.2l-3.7-52.7c6.4-3.9,12.5-8.4,18.2-13.6c2.4,30.2,7.3,65.1,19.7,95.4
		c0.6,15.7-9.5,37.1-22.9,48.2l9.6,11.5c11-9.1,19.9-23,24.6-37.2c17.9,29.2,43.7,47.6,77,54.7c1.5,0.3,2.9,0.5,4.4,0.5
		c10.1,0,19.4-7.3,21.8-17.9c1.4-5.9,0.2-11.9-3.3-16.8c-3.7-5.2-9.7-8.9-17.7-10.9c-27.2-6.8-45.9-27-56.9-61.7
		c-2.4-7.4-4.3-15.1-5.8-23c13,8.5,29.4,14,44.4,14v-15c-17.1,0-38.1-9.7-47.9-21.9c-2.1-17.3-3.1-35-3.8-52.3
		c-0.5-11.5-1-22.9-1.4-34.3c-0.7-17.6-1.4-35.6-2.3-53.6l19.8,13.5V247c0,12.4,10.1,22.5,22.5,22.5s22.5-10.1,22.5-22.5v-23.9
		c2.9,2.1,6,3.8,9.4,4.9c3,1,6.1,1.5,9,1.5c0.2,0,0.4,0,0.6,0l-5.2,63.6l-0.2,2.9c-2.5,29.7-7.1,84.9,33.1,96.1l135.2,37.8h38.5
		c18.5,0,33.6,15.1,33.6,33.6S439.6,497,421.1,497H292v15h129.1c26.8,0,48.6-21.8,48.6-48.6S447.8,414.8,421.1,414.8L421.1,414.8z
		 M185.7,247c0,4.1-3.4,7.5-7.5,7.5c-4.1,0-7.5-3.4-7.5-7.5v-75.5l-51.2-35l0.8,15.1c1.1,22.9,2.1,46.1,3,68.5
		c0.5,11.4,0.9,22.9,1.4,34.4c1.5,34.2,3.7,70.3,13.9,102.1c12.6,39.6,35.4,63.7,67.6,71.7c4.3,1.1,11.3,3.8,10,9.7
		c-0.8,3.6-4.5,7-8.4,6.2c-78.1-16.7-93.1-98.3-97.4-176l-1.1-19.3l-12.2,15c-6,7.3-12.7,13.6-19.9,18.8l-1.3-18.2
		c12.9-11.6,23.3-27.4,31.5-48.4l0.6-1.5l-6.8-158.4l-15,0.6l6.6,155.2c-5.2,13-11.3,23.6-18.4,32.2L58.4,15h25.9l1.2,26.9l15-0.6
		L99.4,15h15l4.4,102.8l30.1,20.6l4.4-4.4c12.9-12.9,20.9-28.6,23.8-46.6c0.7-4.4,2.8-11.6,8.9-10.7c3.7,0.5,7.4,3.9,6.9,7.9
		c-2.9,22.3-11.1,40.7-25.3,56.2l-5.8,6.4l24,16.3L185.7,247L185.7,247z M214.7,213.7c-3.1-1-10.7-4.7-14-16.2v-41.9l-16.5-11.3
		c12.8-16.3,20.7-35.8,23.5-57.9c1.5-11.8-7.3-22.9-19.6-24.6c-6-0.9-11.9,0.8-16.5,4.7c-4.9,4.1-8,10.4-9.4,18.5
		c-2.1,13-7.2,24.1-15.4,33.9l-13.4-9.2L129.4,15h107.9l-16.3,199.3C219.3,214.6,217.2,214.5,214.7,213.7z"/>
	<path class="st0" d="M262,497h15v15h-15V497z"/>
	<path class="st0" d="M315.5,442.2l4-14.4l14.4,4l-4,14.4L315.5,442.2z"/>
	<path class="st0" d="M286.6,434.1l4-14.4l14.4,4l-4,14.4L286.6,434.1z"/>
</g>
</svg>
