<svg id="Layer_1" data-name="Layer 1" xmlns="http://www.w3.org/2000/svg" viewBox="0 0 95 95"><defs><style>.cls-1{fill:#90257d;}</style></defs><g id="_3_Document_hospital_paper_prescription_report" data-name="3, Document, hospital, paper, prescription, report"><path class="cls-1" d="M281.9,219.5H276v-1.9c0-1-1.3-1.8-2.8-1.8H261.7c-1.3-4.2-6.9-7.3-13.7-7.3s-12.4,3.1-13.6,7.3H222.9c-1.5,0-2.8.8-2.8,1.8v1.8h-6c-7.4,0-13.5,4-13.5,8.9v66.3c0,4.9,6.1,8.9,13.5,8.9H282c7.5,0,13.6-4,13.6-8.9V228.3c-.1-4.9-6.2-8.8-13.7-8.8Zm-56.2,0h11.2c1.5,0,2.7-.9,2.7-1.9,0-3,3.8-5.4,8.4-5.4s8.4,2.4,8.4,5.4c0,1,1.2,1.9,2.8,1.9h11.1v5.4H225.7Zm64.2,75.1c0,2.9-3.5,5.2-8,5.2H214.1c-4.4,0-8-2.3-8-5.2V228.3c0-2.8,3.6-5.2,8-5.2h6v3.7c0,1,1.3,1.8,2.8,1.8h50.3c1.5,0,2.8-.8,2.8-1.8v-3.7h5.9c4.4,0,8,2.4,8,5.3Z" transform="translate(-200.6 -208.5)"/><path class="cls-1" d="M281.6,261.5c-1.6,0-2.8.8-2.8,1.8v18.3h-14c-1.5,0-2.7.8-2.7,1.8v9.1H217.3v-42h22.4a3.4,3.4,0,0,0,2.5-1l5.1-6.7,6.4,15.5a3,3,0,0,0,2.7,1.4h.1a2.8,2.8,0,0,0,2.6-1.4l5.1-13.2H276c1.5,0,2.7-.9,2.7-1.9s-1.2-1.8-2.7-1.8H262a2.8,2.8,0,0,0-2.7,1.4l-3,7.8-5.6-13.3a2.9,2.9,0,0,0-2.4-1.4,3.8,3.8,0,0,0-2.8,1l-7.6,10H217.3v-11c0-1-1.3-1.8-2.8-1.8s-2.8.8-2.8,1.8v58.5c0,1,1.3,1.8,2.8,1.8h50.3a4.2,4.2,0,0,0,2-.5l16.7-11a1.6,1.6,0,0,0,.8-1.3V263.3c0-1-1.2-1.8-2.7-1.8Zm-6.8,23.7-7.2,4.8v-4.8Z" transform="translate(-200.6 -208.5)"/><path class="cls-1" d="M228.5,267H248c1.6,0,2.8-.9,2.8-1.9s-1.2-1.8-2.8-1.8H228.5c-1.5,0-2.8.8-2.8,1.8S226.9,267,228.5,267Z" transform="translate(-200.6 -208.5)"/><path class="cls-1" d="M270.4,272.4c0-1-1.3-1.8-2.8-1.8H228.5c-1.5,0-2.8.8-2.8,1.8s1.3,1.9,2.8,1.9h39.1C269.1,274.3,270.4,273.5,270.4,272.4Z" transform="translate(-200.6 -208.5)"/><path class="cls-1" d="M228.5,277.9c-1.5,0-2.8.8-2.8,1.9s1.3,1.8,2.8,1.8h25.1c1.6,0,2.8-.8,2.8-1.8s-1.2-1.9-2.8-1.9Z" transform="translate(-200.6 -208.5)"/></g></svg>