<?xml version="1.0" encoding="utf-8"?>
<!-- Generator: Adobe Illustrator 25.0.0, SVG Export Plug-In . SVG Version: 6.00 Build 0)  -->
<svg version="1.1" id="Layer_3" xmlns="http://www.w3.org/2000/svg" xmlns:xlink="http://www.w3.org/1999/xlink" x="0px" y="0px"
	 viewBox="0 0 512 512" style="enable-background:new 0 0 512 512;" xml:space="preserve">
<style type="text/css">
	.st0{fill:#90257D;}
</style>
<g>
	<path class="st0" d="M288,270.1c-3,6.1-9.2,9.9-16,9.9s-13-3.8-16-9.9l-0.8-1.7l-14.3,7.2l0.8,1.7c5.8,11.6,17.4,18.7,30.3,18.7
		s24.5-7.2,30.3-18.7l0.8-1.7l-14.3-7.2L288,270.1z"/>
	<path class="st0" d="M176,270.1c-3,6.1-9.2,9.9-16,9.9s-13-3.8-16-9.9l-0.8-1.7l-14.3,7.2l0.8,1.7c5.8,11.6,17.4,18.7,30.3,18.7
		s24.5-7.2,30.3-18.7l0.8-1.7l-14.3-7.2L176,270.1z"/>
	<path class="st0" d="M333.7,378c0.5-1.3,1-2.6,1.5-3.8c13.8-12,24.9-26.5,33.1-42.4c25.6-26.5,39.8-61.4,39.8-98.3v-23.6
		c0-12.4-2.8-24.8-8.1-36l-3.1-46.2c-3-45.1-37.3-81.6-81.9-87.5l-6.5-4.3C280.9,17.7,249,8,216,8s-64.9,9.7-92.4,28l-6.5,4.3
		c-44.6,5.9-78.9,42.4-81.9,87.5l-3.1,46.2c-5.3,11.2-8.1,23.6-8.1,36v23.6c0,36.9,14.1,71.7,39.7,98.2
		c8.2,15.9,19.2,30.3,33.1,42.3c9.4,24.4,23.6,46.8,41.9,65.8c3.6,6.8,8,13.2,13.3,19V504h16v-30.8c14,9.6,30.6,14.8,48,14.8
		s34-5.2,48-14.8V504h16v-45.2c5-5.7,9.4-11.8,12.9-18.5c5-5.2,9.6-10.6,14-16.3h5c18.5,0,35.9,7.2,49,20.3l65.4,65.4l11.3-11.3
		L372.3,433c-16.1-16.1-37.5-25-60.3-25h-88c-4.4,0-8-3.6-8-8s3.6-8,8-8h88c28.8,0,55.9,11.2,76.3,31.6l86.1,86.1l11.3-11.3
		l-86.1-86.1C381.4,394.1,358.5,382.4,333.7,378L333.7,378z M345.3,339l14.5-65.2c0.3-1.4,0.2-2.8-0.2-4.1l-1.4-4.6
		c-19.3-62.8-76.5-105-142.2-105S93.1,202.2,73.8,265l-1.4,4.6c-0.4,1.3-0.5,2.7-0.2,4.1L86.7,339C72.1,318.1,64,293.2,64,267.2
		C64,199.3,119.3,144,187.2,144h57.6c67.9,0,123.2,55.3,123.2,123.2C368,293.2,359.9,318.1,345.3,339L345.3,339z M392,233.5
		c0,15.9-3,31.3-8.7,45.7c0.3-4,0.7-8,0.7-12.1c0-22.3-5.4-43.4-14.8-62.1c7.7-2.6,14.6-7.1,20.4-12.8c1.5,5.8,2.4,11.7,2.4,17.6
		L392,233.5z M40,233.5v-23.6c0-10.5,2.5-21,7.2-30.3c0.5-1,0.8-2,0.8-3l3.2-47.7c2.5-38,31.9-68.6,69.7-72.9
		c1.3-0.1,2.5-0.6,3.6-1.3l8-5.4C157.3,32.7,186.2,24,216,24s58.7,8.7,83.5,25.3l8,5.4c1.1,0.7,2.3,1.2,3.6,1.3
		c37.9,4.2,67.2,34.8,69.7,72.9l3,45l-1.2,1.8c-5.1,7.6-12.9,12.9-21.7,15.1c-24.4-36.9-65.9-61.5-113.1-62.5
		c-0.4-19.1-2.1-38.2-5.2-57l-2.7-16.4l-15.8,2.6l2.7,16.4c3,17.9,4.6,36.1,5,54.2h-19.6l-0.3-0.5c-7.8-11.7-12-25.4-12-39.5h-16
		c0,14,3.4,27.7,9.8,40h-6.6c-40.6,0-77,17.6-102.5,45.4c-3-6.2-4.7-13.1-4.7-20V152H64v1.4c0,11.8,3.6,23.4,9.8,33.3
		C57.6,209.4,48,237.2,48,267.2c0,4.1,0.3,8.1,0.7,12.1C43,264.9,40,249.4,40,233.5L40,233.5z M167,451.7
		c-14.8-14.9-23-34.6-23-55.6v-29.5c0-8.1,6.6-14.6,14.6-14.6c8.2,0,15.9-3.2,21.7-9l14.1-14.1c11.6-11.6,31.7-11.6,43.3,0
		l14.1,14.1c5.8,5.8,13.5,9,21.6,9c8.1,0,14.6,6.6,14.6,14.6v9.4h-40c-7.5-10-19.3-16-32-16c-22.1,0-40,17.9-40,40s17.9,40,40,40
		c12.6,0,24.5-6,32-16h34.9c-3.9,10.4-10,19.8-17.9,27.7c-13.1,13.1-30.5,20.3-49,20.3S180.1,464.8,167,451.7L167,451.7z M200,400
		c0,11.7,8.4,21.4,19.4,23.5c-1.2,0.2-2.3,0.5-3.4,0.5c-13.2,0-24-10.8-24-24s10.8-24,24-24c1.2,0,2.3,0.3,3.4,0.5
		C208.4,378.6,200,388.3,200,400z M304,376v-9.4c0-16.9-13.7-30.6-30.6-30.6c-3.9,0-7.6-1.5-10.3-4.3L249,317.7
		c-8.8-8.8-20.5-13.7-33-13.7s-24.2,4.8-33,13.7L169,331.7c-2.8,2.8-6.4,4.3-10.3,4.3c-16.9,0-30.6,13.7-30.6,30.6v29.5
		c0,1.6,0.2,3.2,0.2,4.8c-11.5-17.9-19.8-37.7-24.4-58.6l-15.6-70l0.8-2.6C106.3,213.7,157.3,176,216,176s109.7,37.7,126.9,93.8
		l0.8,2.6l-15.6,70c-2.6,11.6-6.4,23-11.2,33.9c-1.7-0.1-3.3-0.2-5-0.2H304z"/>
</g>
</svg>
