<?xml version="1.0" encoding="utf-8"?>
<!-- Generator: Adobe Illustrator 25.0.0, SVG Export Plug-In . SVG Version: 6.00 Build 0)  -->
<svg version="1.1" id="Layer_1" xmlns="http://www.w3.org/2000/svg" xmlns:xlink="http://www.w3.org/1999/xlink" x="0px" y="0px"
	 viewBox="0 0 512 512" style="enable-background:new 0 0 512 512;" xml:space="preserve">
<style type="text/css">
	.st0{fill:#90257D;}
</style>
<path class="st0" d="M456.9,260.7L416,199.4C414.2,106.8,338.3,32,245.3,32c-94.1,0-170.7,76.6-170.7,170.7
	c0,52.4,23.3,100.7,64,133.2v133.4H160V330.7c0-3.3-1.6-6.5-4.3-8.5c-38-28.5-59.7-72.1-59.7-119.5c0-82.3,67-149.3,149.3-149.3
	s149.3,67,149.3,149.3c0,2.1,0.6,4.2,1.8,5.9l0.9,1.3c-16.6-11.6-36.4-17.9-56.8-17.9h-63.2c-41.2,0-74.7,33.5-74.7,74.7v202.7H224
	V266.7c0-29.4,23.9-53.3,53.3-53.3h63.2c18.6,0,36.6,6.7,50.7,18.8l27.9,23.9h-13c-17.5-13.8-39.2-21.3-61.5-21.3h-67.3
	c-17.6,0-32,14.4-32,32s14.4,32,32,32h110.2c-2.5,15.5-5.6,29.7-9.4,42.7h-68.8c-23.5,0-42.7,19.1-42.7,42.7v85.3H288V384
	c0-11.8,9.6-21.3,21.3-21.3h61.7c-1.4,3.7-2.9,7.2-4.5,10.6c-14.7-0.2-30-1.1-45.6-2.7c-3.1-0.3-6,0.7-8.2,2.7
	c-2.2,2-3.5,4.9-3.5,7.9v88.1h21.3v-76.4c14.5,1.2,28.9,1.8,42.7,1.8c4,0,7.7-2.3,9.5-5.9c14.2-28.4,24-65.8,29.1-111.4H448
	c3.9,0,7.6-2.2,9.4-5.6C459.3,268.2,459.1,264,456.9,260.7z M390.4,277.3H277.3c-5.9,0-10.7-4.8-10.7-10.7c0-5.9,4.8-10.7,10.7-10.7
	h67.3c16.8,0,33,5.5,46.4,15.4C390.9,273.4,390.7,275.4,390.4,277.3z M160,234.7c0,17.3,9.8,32,21.3,32c5.9,0,10.7,4.8,10.7,10.7
	s-4.8,10.7-10.7,10.7c-23.5,0-42.7-23.9-42.7-53.3s19.1-53.3,42.7-53.3c5.9,0,10.7,4.8,10.7,10.7s-4.8,10.7-10.7,10.7
	C169.8,202.7,160,217.3,160,234.7z"/>
</svg>
