<?xml version="1.0" encoding="utf-8"?>
<!-- Generator: Adobe Illustrator 25.0.0, SVG Export Plug-In . SVG Version: 6.00 Build 0)  -->
<svg version="1.1" id="Layer_1" xmlns="http://www.w3.org/2000/svg" xmlns:xlink="http://www.w3.org/1999/xlink" x="0px" y="0px"
	 viewBox="0 0 512 512" style="enable-background:new 0 0 512 512;" xml:space="preserve">
<style type="text/css">
	.st0{fill:#90257D;}
</style>
<g id="Outline">
	<path class="st0" d="M489.6,371.2c-13.6,18.1-35,28.7-57.6,28.8h-32c-2.3,0-4.4,1-5.9,2.6l-28.3,31.4l11.9,10.7l25.9-28.8H432
		c27.7-0.1,53.7-13.1,70.4-35.2L489.6,371.2z"/>
	<path class="st0" d="M332,471.6c-4.7,5.2-11.3,8.2-18.3,8.4c-14.1,0.3-25.7-11.7-25.7-25.8v-0.4c0-6.7,2.7-13.1,7.4-17.8l0.2-0.2
		l70.1-70.1l-11.3-11.3l-70.1,70.1c-6.1,6.1-14.9,8.8-23.4,7.1c-3.5-0.7-6.8-2.1-9.8-4.1c-11.8-8.2-14.7-24.4-6.5-36.1
		c0.9-1.3,1.9-2.4,2.9-3.5l70.1-70.1l-11.3-11.3l-70.4,70.4c-4.6,4.6-10.9,7.2-17.4,7.2l0,0c-6.7,0.1-13.2-2.4-18.2-6.9
		c-9.3-8.6-11-22.6-4-33.2l58.3-56.8c3.1,0.6,6.2,0.9,9.4,0.9h92.4l13.8,15.5c32,35.9,77.7,56.5,125.8,56.5v-16
		c-43.5,0-84.9-18.6-113.9-51.1L366,274.7c-1.5-1.7-3.7-2.7-6-2.7h-95.4c-17.9,0-32.9-14.7-32.6-32.6c0.3-17.4,14.5-31.4,32-31.4
		h152v-16h-63.8l57.5-56H496v-16h-69.8l33.2-32.3c16-15.6,16.6-42.8,1-59c-11.8-11.8-29.3-15.6-44.9-9.8
		c-16.9,6.6-27.3,23.1-40.8,35.3l10.1,12.3c7.7-5.7,13.4-13.6,20-20.5s14.8-13.2,24.4-13.9c8.4-0.5,16.5,3.3,21.6,10
		c7.8,10.4,6.7,25-2.5,34.1L329.3,192H264c-1.6,0-3.3,0.1-4.9,0.3L372.7,78.6l-11.3-11.3L308.7,120h-59.5
		c-23.4-0.1-45.8,9.2-62.2,25.8l-16,16l11.3,11.3l16-16c13.5-13.5,31.8-21.1,50.9-21.1h43.5l-58.3,58.3l-87.6,87.6
		c-5,5.1-11.9,8-19,8c-8-0.1-15.6-3.8-20.4-10.3c-2.7-3.5-4.5-7.8-5-12.2c-1.1-8,1.6-16.1,7.4-21.8l58.3-58.3L156.7,176l-58.3,58.3
		c-16.4,16.4-16.4,42.9,0,59.3c6.7,6.7,15.4,10.9,24.7,12L18.3,410.3c-1.5,1.5-2.3,3.5-2.3,5.7v72c0,4.4,3.6,8,8,8
		c38,0.1,74.5-15,101.3-41.9l40.4-40.4c1.5-1.5,2.3-3.5,2.3-5.7v-36.6l8.3-8.1c2.6,21,20.5,36.7,41.6,36.7h6.5
		c-3.4,22.9,12.5,44.2,35.4,47.6c2,0.3,4,0.4,6.1,0.4c2.2,0,4.4-0.2,6.5-0.5c-0.3,2.1-0.5,4.2-0.5,6.3v0.2c0,22.6,17.9,41.6,40.5,42
		c11.9,0.2,23.4-4.8,31.3-13.6l24.3-27l-11.9-10.7L332,471.6z M154.4,362.3c-1.5,1.5-2.4,3.6-2.4,5.7v36.7l-38.1,38.1
		c-21.8,22-51,35.1-81.9,37v-60.4l184.3-184.3c-1.9,18.1,6.7,35.7,22.1,45.5L154.4,362.3z"/>
	<rect x="376" y="92.7" transform="matrix(0.7071 -0.7071 0.7071 0.7071 38.932 301.9897)" class="st0" width="16" height="22.6"/>
	
		<rect x="352" y="116.7" transform="matrix(0.7071 -0.7071 0.7071 0.7071 14.9319 292.0486)" class="st0" width="16" height="22.6"/>
	<rect x="400" y="68.7" transform="matrix(0.7071 -0.7071 0.7071 0.7071 62.9321 311.9307)" class="st0" width="16" height="22.6"/>
	
		<rect x="328" y="140.7" transform="matrix(0.7071 -0.7071 0.7071 0.7071 -9.0682 282.1075)" class="st0" width="16" height="22.6"/>
	
		<rect x="304" y="164.7" transform="matrix(0.7071 -0.7071 0.7071 0.7071 -33.0683 272.1664)" class="st0" width="16" height="22.6"/>
	
		<rect x="200" y="268.7" transform="matrix(0.7071 -0.7071 0.7071 0.7071 -137.0677 229.088)" class="st0" width="16" height="22.6"/>
	
		<rect x="176" y="292.7" transform="matrix(0.7071 -0.7071 0.7071 0.7071 -161.0678 219.1469)" class="st0" width="16" height="22.6"/>
	<path class="st0" d="M85.8,417.3c-11.8,10.3-25.5,18.2-40.3,23.1l5.1,15.2c16.9-5.6,32.4-14.5,45.8-26.2l45-39.3l-10.5-12
		L85.8,417.3z"/>
</g>
</svg>
