<?xml version="1.0" encoding="utf-8"?>
<!-- Generator: Adobe Illustrator 25.0.0, SVG Export Plug-In . SVG Version: 6.00 Build 0)  -->
<svg version="1.1" id="Layer_1" xmlns="http://www.w3.org/2000/svg" xmlns:xlink="http://www.w3.org/1999/xlink" x="0px" y="0px"
	 viewBox="0 0 432 525.6" style="enable-background:new 0 0 432 525.6;" xml:space="preserve">
<style type="text/css">
	.st0{fill:#90257D;}
</style>
<g>
	<path class="st0" d="M243.2,321c1.3,1.3,3.3,2,4.6,2c1.3,0,3.3-0.7,4.6-2l28.5-29c22.6-22.9-6.6-60-33.2-42.5
		c-27.2-17.5-55.8,20.2-33.2,42.5L243.2,321z M243.2,263c2.7,2.7,6.6,2.7,9.3,0c12.6-12.8,31.9,6.7,19.2,19.6l-23.9,24.3L224,282.5
		C210.7,269.7,229.9,249.5,243.2,263z"/>
	<path class="st0" d="M428.4,263c0-107.9-80.3-210.4-211.7-215.8C126.4,40.4,3.6,126.1,3.6,263c0,120,96.2,215.8,212.4,215.8
		C333.5,478.8,428.4,381.7,428.4,263z M415.1,263c0,83-49.1,154.4-120.1,185.5c2-29-11.9-54-38.5-72.2c52.4-35.7,75.7-70.8,69-103.9
		c-8-40.5-59.1-65.4-87.6-76.2c33.2-19.6,41.2-53.3,29.9-78.9c-1.3-2.7-3.3-4-6-4C226,113.2,214,95,222,60.6
		C328.8,64,415.1,153.7,415.1,263z M16.9,263c0-68.8,33.9-129.5,85.6-165.9c-27.9,84.3,10.6,155.1,24.6,176c0,0,0,0.7,0.7,0.7
		c16.6,22.9,4.6,40.5-6.6,57.3c-4.6,7.4-9.3,14.2-11.3,20.9c-3.3,10.1-4.6,19.6-4.6,29.7c0,11.5,2,35.7,18.6,60.7
		C60,408.6,16.9,340.5,16.9,263z M151,454.5c-31.2-29-45.1-76.9-19.2-115.3c23.9-35.7,20.6-50.6,6-73.5
		c-9.3-14.8-54.4-92.4-16.6-180.1c25.9-14.2,55.8-22.9,87-24.3c-8,39.1,8,64.1,48.5,66.1c6.6,25-2.7,49.9-39.8,64.7
		c-2.7,1.3-4.6,4-4,6.7c0.7,2.7,2.7,5.4,5.3,6.1c17.9,3.4,86.3,29.7,94.3,70.1c5.3,28.3-17.9,60-69,93.7
		c-13.9-7.4-25.9-10.1-25.9-10.8c-3.3-0.7-7.3,1.3-8,4.7c-0.7,3.4,1.3,7.4,4.6,8.1c37.2,10.1,73,39.8,67,83
		c-19.9,8.1-42.5,11.5-65,11.5S171.5,461.9,151,454.5z"/>
	<path class="st0" d="M328.8,214.4c3.3,0.7,6.6-2.7,7.3-6.1l1.3-12.1c35.2,46.5,31.9,112.6-10,155.1c-2.7,2.7-2.7,6.7,0,9.4
		c2.7,2.7,6.6,2.7,9.3,0c45.8-46.5,51.1-120,11.3-173.3l11.3,1.3c3.3,0.7,6.6-2.7,7.3-6.1c0.7-3.4-2.7-6.7-6-7.4l-27.2-2.7
		c-4-0.7-7.3,3.4-7.3,6.7l-2.7,27C322.2,211,324.9,214.4,328.8,214.4z"/>
</g>
</svg>
