<?xml version="1.0" encoding="utf-8"?>
<!-- Generator: Adobe Illustrator 25.0.0, SVG Export Plug-In . SVG Version: 6.00 Build 0)  -->
<svg version="1.1" id="Capa_1" xmlns="http://www.w3.org/2000/svg" xmlns:xlink="http://www.w3.org/1999/xlink" x="0px" y="0px"
	 viewBox="0 0 512 512" style="enable-background:new 0 0 512 512;" xml:space="preserve">
<style type="text/css">
	.st0{fill:#90257D;}
</style>
<g>
	<g>
		<path class="st0" d="M54.1,396c-0.9-5.5-6-9.2-11.5-8.3c-5.5,0.9-9.2,6-8.3,11.5c5.6,35,18,70.2,37.8,107.5
			c1.8,3.4,5.3,5.3,8.8,5.3c1.6,0,3.2-0.4,4.7-1.2c4.9-2.6,6.7-8.6,4.1-13.5C71,462,59.3,428.8,54.1,396z"/>
		<path class="st0" d="M311.8,377.2L256,421.3l-55.8-44.1c-4.3-3.4-10.6-2.7-14,1.6c-3.4,4.3-2.7,10.6,1.6,14l58.2,46V502
			c0,5.5,4.5,10,10,10c5.5,0,10-4.5,10-10v-63.2l58.2-46c4.3-3.4,5.1-9.7,1.6-14C322.4,374.5,316.1,373.7,311.8,377.2z"/>
		<path class="st0" d="M499.1,127.5l-42.4-42.4c-1.9-1.9-4.6-3-7.3-2.9c-2.7,0.1-5.3,1.3-7.2,3.3L420.2,110
			c-5-33.8-3.2-65.2,5.4-97.4c1.4-5.3-1.7-10.8-7.1-12.2c-5.3-1.4-10.8,1.7-12.2,7.1c-10.7,40-11.7,78.8-3.1,121.6L382,152.7
			c-3.5,4-3.4,10,0.4,13.7L393,177l-52.5,52.5c-4.3-3.6-8.9-6.8-13.8-9.6c-4.8-2.8-10.9-1.1-13.7,3.7c-2.8,4.8-1.1,10.9,3.7,13.7
			c12.3,7.1,22.5,17.4,29.6,29.6c1.9,3.2,5.2,5,8.7,5c1.7,0,3.4-0.4,5-1.3c4.8-2.8,6.4-8.9,3.7-13.7c-2.7-4.6-5.7-9.1-9.1-13.2
			l52.5-52.5l10.6,10.6c1.9,1.9,4.5,2.9,7.1,2.9c0.2,0,0.4,0,0.7,0c1.3,3.7,2.6,7.5,3.9,11.1c29.3,82.7,57,160.8-7.3,281.5
			c-2.6,4.9-0.7,10.9,4.1,13.5c1.5,0.8,3.1,1.2,4.7,1.2c3.6,0,7-1.9,8.8-5.3c68.3-128.5,37.9-214.4,8.4-297.6
			c-1.9-5.5-3.9-11.1-5.9-16.7l56.3-50.4c2-1.8,3.3-4.4,3.3-7.2S501,129.5,499.1,127.5L499.1,127.5z M425.2,181l-22-22l46.7-52.2
			l27.5,27.5L425.2,181z"/>
		<path class="st0" d="M196.7,287.6c-2.8-4.8-8.9-6.4-13.7-3.7c-4.2,2.4-8.2,5.1-11.9,8.1L119,239.9l10.6-10.6
			c3.8-3.8,3.9-9.8,0.4-13.7l-34.2-38.2c15.9-49.3,27.5-104.1,9.9-169.9c-1.4-5.3-6.9-8.5-12.2-7.1c-5.3,1.4-8.5,6.9-7.1,12.2
			c14.4,53.6,8.5,98.6-6.1,147.4l-10.4-11.6c-1.8-2-4.4-3.3-7.2-3.3c-2.7-0.1-5.4,1-7.3,2.9l-42.4,42.4c-1.9,1.9-3,4.6-2.9,7.3
			c0.1,2.7,1.3,5.3,3.3,7.2l39.6,35.4c-6.4,19.1-13.2,41.5-17.5,65.9c-1,5.4,2.7,10.6,8.1,11.6c0.6,0.1,1.2,0.2,1.7,0.2
			c4.8,0,9-3.4,9.8-8.3c3.5-19.7,8.7-38.3,14-54.8L80.5,265c1.9,1.7,4.3,2.5,6.7,2.5c2.6,0,5.1-1,7.1-2.9l10.6-10.6l51.9,51.9
			c-4,4.7-7.5,9.7-10.6,15c-2.8,4.8-1.1,10.9,3.7,13.7c1.6,0.9,3.3,1.3,5,1.3c3.5,0,6.8-1.8,8.7-5c7.1-12.3,17.4-22.5,29.6-29.6
			C197.8,298.5,199.5,292.4,196.7,287.6L196.7,287.6z M86.8,243.8L34.5,197L62,169.6l46.7,52.2L86.8,243.8z"/>
		<path class="st0" d="M50.9,352.7c0-5.5-4.5-10-10-10h0c-5.5,0-10,4.5-10,10s4.5,10,10,10S50.9,358.2,50.9,352.7z"/>
	</g>
</g>
</svg>
