<?xml version="1.0" encoding="utf-8"?>
<!-- Generator: Adobe Illustrator 25.0.0, SVG Export Plug-In . SVG Version: 6.00 Build 0)  -->
<svg version="1.1" id="Layer_1_1_" xmlns="http://www.w3.org/2000/svg" xmlns:xlink="http://www.w3.org/1999/xlink" x="0px" y="0px"
	 viewBox="0 0 512 512" style="enable-background:new 0 0 512 512;" xml:space="preserve">
<style type="text/css">
	.st0{fill:#90257D;}
</style>
<path class="st0" d="M136,173.9c7.7,0,14-6.3,14-14s-6.3-14-14-14s-14,6.3-14,14S128.3,173.9,136,173.9z M136,157.9c1.1,0,2,0.9,2,2
	c0,2.2-4,2.2-4,0C134,158.8,134.9,157.9,136,157.9z"/>
<path class="st0" d="M216,173.9c7.7,0,14-6.3,14-14s-6.3-14-14-14s-14,6.3-14,14S208.3,173.9,216,173.9z M216,157.9c1.1,0,2,0.9,2,2
	c0,2.2-4,2.2-4,0C214,158.8,214.9,157.9,216,157.9z"/>
<path class="st0" d="M397.8,264H359c-41,0-76.3,24.1-92.9,58.8c-13.1-2.3-27.2-2.7-42.1-2.8c0-0.1,0-0.1,0-0.2v-28.9
	c6.9-4,13.4-8.8,19.2-14.6c18.5-18.2,28.8-42.5,28.8-68.5v-16h4c15.4,0,28-12.6,28-28s-12.6-28-28-28h-4v-24V70.4
	c0-21.6-14.5-40.6-35.4-46.3c-39.7-10.8-81.6-10.8-121.3,0C94.5,29.8,80,48.8,80,70.4v41.4v24h-4c-15.4,0-28,12.6-28,28
	s12.6,28,28,28h4v16c0,35.9,19.2,66.9,48,83.4v28.6c0,0,0,0.1,0,0.1c-58.7,0.2-112,5.2-112,120v48c0,4.4,3.6,8,8,8h304
	c4.4,0,8-3.6,8-8v-48c0-1.4,0-2.8-0.1-4.3c2.9,4.5,6.9,8.6,12.5,11.4c6.7,3.4,13.3,5.4,18.7,7c3.1,0.9,7.1,2.2,8.9,3.2V496h16v-40
	c0-10.8-10.7-14.2-20.2-17.1c-5-1.5-10.7-3.3-16.2-6.1c-6.6-3.3-9.4-11.4-10.6-17.5c13.9-1.3,27.5-5.2,40-11.5
	c1.6-0.8,3.2-1.5,4.8-2.2c2.6,2.9,6.3,6.7,11,10.7l4.5,22.5c1.8,9.3,2.8,18.7,2.8,28.2v33h16v-33c0-10.5-1-21-3.1-31.3l-1.4-6.8
	c8.4,4.2,18,7.1,28.5,7.1c11.9,0,20.8-3.7,26.5-11.1c5.8-7.5,6.6-16.6,6.3-23c2.1-0.9,4.1-2,5.9-3.4c5.9-4.8,9.3-11.9,9.3-19.5
	v-12.7C496,308.1,451.9,264,397.8,264L397.8,264z M96,117.8c13.4-4,49.4-13.9,80-13.9s66.6,9.9,80,13.9v53.8l-17.2,11.5
	c-12.3-4-48.1-15.2-62.8-15.2s-50.5,11.2-62.8,15.2L96,171.6V117.8z M120,197.7c15.7-5,45.4-13.8,56-13.8c10.6,0,40.2,8.8,56,13.8
	V265c-15.4,15.1-35.6,23.3-57.5,22.9c-21.4-0.4-40.5-8.9-54.5-22.6V197.7z M248,242.6v-46.5l8-5.3v17.1
	C256,220.1,253.2,231.9,248,242.6z M276,151.9c6.6,0,12,5.4,12,12s-5.4,12-12,12h-4v-24H276z M96,70.4c0-14.4,9.7-27.1,23.6-30.9
	c36.9-10.1,75.9-10.1,112.8,0C246.3,43.3,256,56,256,70.4v30.6c-16.7-4.8-50.2-13.2-80-13.2s-63.3,8.4-80,13.2V70.4z M76,175.9
	c-6.6,0-12-5.4-12-12s5.4-12,12-12h4v24H76z M96,190.8l8,5.3v46.8c-5.1-10.6-8-22.4-8-35.1V190.8z M174.2,303.9c0.6,0,1.2,0,1.8,0
	c11.1,0,21.8-2,32-5.6v21.6c0,17.6-14.4,32-32,32s-32-14.4-32-32v-21.4C153.5,301.7,163.6,303.7,174.2,303.9L174.2,303.9z M320,480
	h-40v-56h-16v56H88v-56H72v56H32v-40c0-101.1,39.1-103.9,98.8-104c6.6,18.5,24.4,31.9,45.2,31.9s38.5-13.3,45.1-31.9
	c13.9,0,27.2,0.3,39.1,2c-2.7,9.2-4.2,18.9-4.2,29v3c0,13,9,22,22,22h18.8c2.6,11.1,11.2,19.8,22.1,22.8c0.7,7.7,1,16.2,1,25.2
	L320,480z M461.9,411.1c-2.6,3.3-7.2,4.9-13.9,4.9c-17.5,0-32.6-11.5-41.5-19.9c13.5-3.1,27.7-3.3,41.4-0.4l16.9,3.6
	C465,402.9,464.6,407.7,461.9,411.1L461.9,411.1z M480,363.8c-8.7,0-15.8-7.1-15.8-15.8h-16c0,17,13.5,30.9,30.4,31.6
	c-0.5,0.9-1.2,1.7-2,2.4c-2.1,1.7-4.9,2.4-7.6,1.8l-17.8-3.8c-18.3-3.9-37.3-3.1-55.1,2.2c0.8-8,7.4-14.2,15.6-14.2h8.2v-16h-8.2
	c-17.5,0-31.8,14.2-31.8,31.8v4.8c-0.8,0.4-1.6,0.7-2.4,1.1c-13.4,6.8-28.4,10.4-43.3,10.4h-7c-8.4,0-15.3-6.8-15.3-15.3v-1.4
	c0-8.4,6.8-15.2,15.1-15.2L344,368l-0.1-16l-16.9,0.1c-14.6,0.1-26.9,10.3-30.2,23.9H278c-4.2,0-6-1.8-6-6v-2.1h0.6
	c0-8.7,7.1-15.8,15.8-15.8c17.5,0,31.8-14.2,31.8-31.8v-20.2h-16v20.2c0,8.7-7.1,15.8-15.8,15.8c-4,0-7.9,0.8-11.4,2.2
	c11.9-33.9,44.1-58.3,82-58.3h24.6c0.2,0.5,0.4,0.9,0.4,1.2v4.6c0,3.2-2.6,5.7-5.7,5.7H376c-13.2,0-24,10.8-24,24s10.8,24,24,24h24
	v-16h-24c-4.4,0-8-3.6-8-8s3.6-8,8-8h2.3c12,0,21.7-9.7,21.7-21.7v-4.6c0-0.4-0.1-0.7-0.1-1c18.4,0.5,35.3,7,48.8,17.7L434,294
	c-1.2,4.7-6,8.2-11.3,8.2H420l0,16l2.7,0c12.4,0,23.5-8.4,26.6-19.9c18.6,15.1,30.6,38.1,30.6,63.9L480,363.8z"/>
</svg>
