<?xml version="1.0" encoding="utf-8"?>
<!-- Generator: Adobe Illustrator 25.0.0, SVG Export Plug-In . SVG Version: 6.00 Build 0)  -->
<svg version="1.1" id="Layer_1" xmlns="http://www.w3.org/2000/svg" xmlns:xlink="http://www.w3.org/1999/xlink" x="0px" y="0px"
	 viewBox="0 0 512 512" style="enable-background:new 0 0 512 512;" xml:space="preserve">
<style type="text/css">
	.st0{fill:#90257D;}
</style>
<path class="st0" d="M208,16H32c-4.4,0-8,3.6-8,8v40c0,4.4,3.6,8,8,8h20v208c0,1.7,0.6,3.4,1.6,4.8L92,336v113.1
	c-12.5,9-20,23.5-20,38.9c0,4.4,3.6,8,8,8h80c4.4,0,8-3.6,8-8c0-15.4-7.5-29.9-20-38.9V336l38.4-51.2c1-1.4,1.6-3.1,1.6-4.8V72h20
	c4.4,0,8-3.6,8-8V24C216,19.6,212.4,16,208,16z M151,480H89c4.4-17.1,21.9-27.4,39-23C139.3,459.9,148.1,468.7,151,480z M172,277.3
	l-38.4,51.2c-1,1.4-1.6,3.1-1.6,4.8v108.2c-7.9-2.1-16.1-2.1-24,0V333.3c0-1.7-0.6-3.4-1.6-4.8L68,277.3V72h16v110.3
	c0,4.4,3.6,8,8,8h56c4.4,0,8-3.6,8-8V72h16V277.3z M100,174.3V72h40v102.3L100,174.3z M200,56H40V32h160V56z"/>
<path class="st0" d="M148,206.3H92c-4.4,0-8,3.6-8,8v54.3c0,1.6,0.5,3.2,1.4,4.6l28,40c2.5,3.6,7.5,4.5,11.1,2c0.8-0.5,1.4-1.2,2-2
	l28-40c0.9-1.3,1.4-2.9,1.4-4.6v-54.3C156,209.9,152.4,206.3,148,206.3L148,206.3z M140,266.1l-20,28.6l-20-28.6v-43.8h40V266.1z"/>
<path class="st0" d="M480,16H304c-4.4,0-8,3.6-8,8v40c0,4.4,3.6,8,8,8h20v208c0,1.7,0.6,3.4,1.6,4.8L364,336v113.1
	c-12.5,9-20,23.5-20,38.9c0,4.4,3.6,8,8,8h80c4.4,0,8-3.6,8-8c0-15.4-7.5-29.9-20-38.9V336l38.4-51.2c1-1.4,1.6-3.1,1.6-4.8V72h20
	c4.4,0,8-3.6,8-8V24C488,19.6,484.4,16,480,16z M423,480h-62c4.4-17.1,21.9-27.4,39-23C411.3,459.9,420.1,468.7,423,480z M444,277.3
	l-38.4,51.2c-1,1.4-1.6,3.1-1.6,4.8v108.2c-7.9-2.1-16.1-2.1-24,0V333.3c0-1.7-0.6-3.4-1.6-4.8L340,277.3V72h16v110.3
	c0,4.4,3.6,8,8,8h56c4.4,0,8-3.6,8-8V72h16V277.3z M372,174.3V72h40v102.3L372,174.3z M472,56H312V32h160V56z"/>
<path class="st0" d="M420,206.3h-56c-4.4,0-8,3.6-8,8v54.3c0,1.6,0.5,3.2,1.4,4.6l28,40c2.5,3.6,7.5,4.5,11.1,2c0.8-0.5,1.4-1.2,2-2
	l28-40c0.9-1.3,1.4-2.9,1.4-4.6v-54.3C428,209.9,424.4,206.3,420,206.3z M412,266.1l-20,28.6l-20-28.6v-43.8h40V266.1z"/>
</svg>
