<?xml version="1.0" encoding="utf-8"?>
<!-- Generator: Adobe Illustrator 25.0.0, SVG Export Plug-In . SVG Version: 6.00 Build 0)  -->
<svg version="1.1" id="Layer_1" xmlns="http://www.w3.org/2000/svg" xmlns:xlink="http://www.w3.org/1999/xlink" x="0px" y="0px"
	 viewBox="0 0 512 512" style="enable-background:new 0 0 512 512;" xml:space="preserve">
<style type="text/css">
	.st0{fill:#90257D;}
</style>
<path class="st0" d="M15.8,443.6c4-1.1,6.3-5.2,5.2-9.2c-9.9-36-7.6-91.1,7-168.2c9.6-50.7,25.1-94.6,46-130.4
	c15-25.7,32.5-46.8,51.8-62.6c12.3-10,29.8-10.2,42.4-0.4c9.5,7.4,14.4,18.9,13,30.9c-2.7,24.7-1.6,60.8,18.5,94.8
	c-2.7,3.4-5.8,7-9.1,10.8c0,0,0,0,0,0c-7.3,8.4-15.1,16.4-23,24.3c-1.9,1.9-24.8,24-25.4,23.4c-5.5-5.5-11.8-12.6-18.1-20.8
	c0.1-7.1,0.8-28.4,5.7-42.6c1.4-3.9-0.7-8.2-4.6-9.5c-3.9-1.4-8.2,0.7-9.5,4.6c-2.8,8.1-4.4,17.8-5.3,26.6
	c-5.2-9.3-9.7-19.5-12.6-30.3c-1.1-4-5.2-6.4-9.2-5.3c-4,1.1-6.4,5.2-5.3,9.2c3.8,14.3,10,27.5,17.1,39.2c-9.8-1-22.1-0.7-33.3,3.8
	c-3.8,1.5-5.7,5.9-4.2,9.7c1.5,3.8,6,5.7,9.7,4.2c14.9-5.9,33.4-2,39.6-0.4c6.4,8.4,12.9,15.7,18.6,21.5c-2.8,2.3-5.6,4.8-8.3,7.4
	c-10.9,10.4-20.5,22.8-28.6,37c-10.5-8.8-23.8-22.3-28.9-37.9c-1.3-3.9-5.5-6.1-9.5-4.8c-3.9,1.3-6.1,5.5-4.8,9.5
	c2.1,6.5,5.4,12.7,9.2,18.4c-6.5,0.9-14.3,2.8-21.9,6.4c-3.8,1.8-5.4,6.2-3.6,10c1.7,3.7,6.3,5.3,10,3.6c10.5-4.9,21.7-5.7,26.9-5.8
	c5.1,5.4,10.4,10.1,15.5,14.2c-3.3,6.8-6.3,13.9-9,21.5c-3.7,10.2-6.5,20.1-8.7,29.5c-2.5-0.7-5.1-1.4-7.8-2.1
	c-2.1-3.8-6-11.7-6.8-20.7c-0.4-4.1-4.1-7.1-8.2-6.8c-4.1,0.4-7.1,4.1-6.8,8.2c0.6,6.3,2.3,12.1,4.1,16.9
	c-5.2-0.2-10.4,0.2-15.4,1.3c-4,0.9-6.6,4.9-5.7,8.9c0.9,4,4.9,6.6,8.9,5.7c11.4-2.5,24.2-0.1,34.5,3.2c-1.8,9.6-2.8,18.3-3.5,25.3
	c-1,11,7.2,21.3,18.2,22.1c9.7,0.8,19.1-6.2,21.1-15.7c0.6-2.8,1.4-6.2,2.4-10c8,7.1,16.9,17.1,20.6,28.3c1.3,3.9,5.6,6.1,9.5,4.8
	c3.9-1.3,6.1-5.5,4.8-9.5c-1.6-4.9-3.9-9.6-6.7-14c5.1-0.9,10.9-2.4,16.6-5.1c3.8-1.8,5.4-6.2,3.6-10c-1.8-3.8-6.2-5.4-10-3.6
	c-8.2,3.8-16.9,4.6-21.3,4.7c-4.1-4.3-8.4-8.2-12.5-11.5c6.5-19.8,17.4-44.9,35.1-67.5c2.3,3.6,5,7.3,8.1,11.1
	c-1,8.5-2.9,30.9,3.6,48.9c1.4,3.8,5.8,5.9,9.6,4.5c3.9-1.4,5.9-5.7,4.5-9.6c-3.3-9.1-3.9-20-3.7-28.7c5.5,5.1,11.7,9.9,18.7,14.3
	c3.4,2.1,8.2,1.1,10.3-2.4c2.2-3.5,1.1-8.1-2.4-10.3c-18.4-11.4-30.8-27-38.4-39.5c3.2-3.4,6.5-6.7,10.1-9.8
	c19.1-16.9,34.9-28.1,47.6-37.2c1.2-0.8,2.4-1.7,3.5-2.5c3.9,19,8.8,50.6,8.8,107.1c0,53.2-7.1,84-22.9,99.8
	c-17.5,17.4-47.4,17.4-88.7,17.3c-30.5,0-62.7-4-80.6-32c-2.2-3.5-6.9-4.5-10.4-2.3s-4.5,6.9-2.3,10.4
	c16.7,26.2,44.7,38.9,85.6,38.9c5,0,9.9,0,14.9,0c41.2,0,71.4-1.1,92.1-21.7C230.6,466,239,432,239,374.5
	c0-65.2-6.4-98.3-10.6-116.9c8.1-6.5,14.4-12.7,18.8-20.5c1.7-3.1,4.9-5,8.3-5h1.1c3.4,0,6.6,1.9,8.3,5c4.4,7.8,10.7,14.1,18.8,20.5
	c-4.2,18.6-10.6,51.7-10.6,116.9c0,57.5,8.4,91.5,27.3,110.4c20.7,20.7,50.9,21.7,92.1,21.7c5,0,9.9,0,14.9,0
	c36.5,0,62.5-10,79.6-30.6c14.7-17.8,22.8-43.3,24.8-78.1c1.9-34.8-2.3-78.8-12.8-134.6c-10.1-53.4-26.6-99.6-49-137.3
	c-2.1-3.6-6.7-4.7-10.3-2.6c-3.6,2.1-4.7,6.7-2.6,10.3c21.5,36.2,37.4,80.7,47.2,132.4c20,105.4,17.2,169-8.7,200.3
	c-18.6,22.5-48.5,25.2-75.7,25.2c-41.4,0.1-71.3,0.1-88.7-17.3C295,458.5,288,427.7,288,374.5c0-56.6,4.9-88.1,8.8-107.1
	c1.1,0.8,2.3,1.6,3.5,2.5c16.4,11.7,32.5,23.8,47.6,37.2c3.6,3.1,6.9,6.4,10.1,9.8c-7.6,12.5-20,28.2-38.4,39.5
	c-3.5,2.2-4.6,6.8-2.4,10.3c2.1,3.5,6.8,4.6,10.3,2.4c7-4.3,13.2-9.2,18.8-14.3c0.2,8.8-0.5,19.7-3.7,28.8c-1.7,4.8,2,10,7.1,10
	c3.1,0,6-1.9,7.1-5c6.5-17.9,4.6-40.4,3.6-48.9c3-3.8,5.7-7.5,8.1-11.1c17.7,22.6,28.6,47.8,35.1,67.5c-4.1,3.3-8.4,7.1-12.5,11.5
	c-4.4-0.1-13.1-0.8-21.3-4.7c-3.8-1.8-8.2-0.2-10,3.6c-1.8,3.8-0.2,8.2,3.6,10c5.7,2.7,11.6,4.2,16.6,5.1c-2.8,4.4-5.1,9-6.7,14
	c-1.3,3.9,0.8,8.2,4.8,9.5c3.8,1.2,8.2-0.9,9.5-4.8c3.7-11.2,12.6-21.2,20.6-28.3c1,3.8,1.8,7.2,2.4,10c0,0,0,0,0,0
	c2,9.5,11.4,16.5,21.1,15.7c11.6-0.9,19.2-11.9,18.2-23c-0.7-6.9-1.7-15.2-3.4-24.4c10.3-3.2,23.2-5.7,34.5-3.2c4,0.9,8-1.7,8.9-5.7
	c0.9-4-1.7-8-5.7-8.9c-5.1-1.1-10.3-1.5-15.4-1.3c1.9-4.8,3.5-10.6,4.1-16.9c0.4-4.1-2.6-7.8-6.8-8.2c-4.1-0.4-7.8,2.6-8.2,6.8
	c-0.9,9-4.7,16.9-6.8,20.7c-2.7,0.6-5.3,1.3-7.8,2c-2.2-9.4-5-19.3-8.7-29.5c-0.7-1.9-9.2-21.3-9-21.5c5.1-4.1,10.4-8.8,15.5-14.2
	c5.1,0.1,16.3,0.8,26.9,5.8c3.6,1.7,8.2,0.2,10-3.6s0.2-8.2-3.6-10c-7.7-3.6-15.5-5.4-21.9-6.4c3.8-5.7,7-11.9,9.2-18.4
	c1.3-3.9-0.8-8.2-4.8-9.5c-3.9-1.3-8.2,0.8-9.5,4.8c-5.1,15.6-18.4,29.1-28.9,37.9c-10.2-17.7-22.6-32.6-37-44.4
	c5.6-5.8,12.1-13,18.6-21.5c6.2-1.6,24.6-5.5,39.6,0.4c3.8,1.5,8.2-0.4,9.7-4.2c1.5-3.8-0.3-8.2-4.2-9.7
	c-11.2-4.5-23.5-4.7-33.3-3.8c7.1-11.7,13.3-24.9,17.1-39.2c1.1-4-1.3-8.1-5.3-9.2c-4-1.1-8.1,1.3-9.2,5.3
	c-2.9,10.8-7.4,21-12.6,30.3c-0.9-8.7-2.5-18.5-5.3-26.6c-1.4-3.9-5.6-6-9.5-4.6c-3.9,1.4-6,5.6-4.6,9.5c4.9,14.2,5.6,35.4,5.7,42.6
	c-6.3,8.3-12.7,15.3-18.1,20.8c-0.2-0.1-0.3-0.3-0.5-0.4c-14.5-12.5-27.6-26.2-41.1-39.7c-6.2-6.8-11.5-13-16-18.4
	c20.1-34,21.2-70,18.5-94.8c-1.3-12,3.6-23.6,13-30.9c12.7-9.8,30.1-9.7,42.4,0.4c12.4,10.1,24.3,22.7,35.2,37.3
	c2.5,3.3,7.2,4,10.5,1.5c3.3-2.5,4-7.2,1.5-10.5c-11.6-15.6-24.3-29-37.7-40c-17.8-14.5-42.9-14.7-61.1-0.6
	c-13.6,10.6-20.7,27.2-18.8,44.4c2.3,21.1,1.6,51.3-13.5,80.2c-0.6-0.8-1.1-1.5-1.6-2.3c-4.2-5.9-6.4-12.8-6.4-20V25.6
	C294.2,14.3,285,5,273.6,5h-35.2c-11.4,0-20.6,9.3-20.6,20.6v137.6c0,7.2-2.2,14.1-6.4,20c-0.5,0.7-1.1,1.5-1.6,2.3
	c-15.1-28.9-15.9-59.1-13.5-80.2c1.9-17.2-5.1-33.9-18.8-44.4c-18.2-14.1-43.3-13.9-61.1,0.6C95.5,78.5,76.9,100.9,61,128.2
	c-21.8,37.3-37.8,82.8-47.8,135.2C-1.8,342.8-4,400,6.5,438.3C7.6,442.3,11.8,444.7,15.8,443.6z M223.6,192c6-8.4,9.2-18.4,9.2-28.7
	V25.6c0-3.1,2.5-5.6,5.6-5.6h35.2c3.1,0,5.6,2.5,5.6,5.6v137.6c0,10.3,3.2,20.3,9.2,28.7c12.7,17.8,27.4,34.2,42.8,49.7
	c15.6,15.6,33.5,28.9,49.2,44.4c41.4,40.7,51.7,104.1,54.3,130.8c0,0,0,0.1,0,0.1c0.3,2.7-1.7,5.6-4.5,5.8c-0.1,0-0.1,0-0.2,0
	c-2.4,0.1-4.6-1.5-5.1-3.9c-1.6-7.5-3.3-15.2-5.9-22.5c-10.6-29.2-22.3-56.8-42.3-81c-19.1-23-43.6-40.6-67.8-57.8
	c-11-7.8-24.4-15.8-31.1-27.9c-9.3-16.6-34.5-16.6-43.8,0c-6.8,12.1-20.1,20.1-31.1,27.9c-13,9.3-29.2,20.8-48.8,38.2
	c-27.6,24.4-46.4,57.4-58.4,91.9c-3.5,10.2-6.5,20.6-8.7,31.2c-0.5,2.4-2.8,4.1-5.3,3.9c-2.8-0.2-4.8-3.1-4.5-5.8
	c1-10.5,3.2-26.7,8-45c6-22.6,14.9-44.6,28-63.9c7.4-10.9,16.3-21.1,27-29.9c14-11.5,27.5-23.6,40.4-36.4
	C196.1,226.4,210.8,209.9,223.6,192z"/>
</svg>
