<?xml version="1.0" encoding="utf-8"?>
<!-- Generator: Adobe Illustrator 25.0.0, SVG Export Plug-In . SVG Version: 6.00 Build 0)  -->
<svg version="1.1" id="Capa_1" xmlns="http://www.w3.org/2000/svg" xmlns:xlink="http://www.w3.org/1999/xlink" x="0px" y="0px"
	 viewBox="0 0 512 512" style="enable-background:new 0 0 512 512;" xml:space="preserve">
<style type="text/css">
	.st0{fill:#90257D;}
</style>
<g>
	<path class="st0" d="M179.2,0c-4.2,0-7.5,3.4-7.5,7.5v10.7c0,19.2-8,37.9-21.9,51.2c-2,1.9-4.1,3.7-6.4,5.4
		c-3.3,2.5-4,7.2-1.5,10.6c1.5,2,3.8,3,6.1,3c1.6,0,3.2-0.5,4.5-1.5c2.8-2.1,5.4-4.3,7.8-6.6c16.9-16.1,26.6-38.7,26.6-62.1V7.5
		C186.8,3.4,183.4,0,179.2,0L179.2,0z"/>
	<path class="st0" d="M125.8,92.7c-1.6-3.8-6.1-5.6-9.9-4L87.3,101c-31.6,13.6-55.6,38.7-67.6,70.9c-11.8,31.6-10.5,65.8,3.7,96.3
		v114.4c0,4.2,3.4,7.5,7.5,7.5s7.5-3.4,7.5-7.5V266.5c0-1.1-0.3-2.3-0.8-3.3c-13.1-27.2-14.5-57.7-4-86s31.7-50.4,59.4-62.3
		l28.6-12.3C125.7,101,127.5,96.5,125.8,92.7z"/>
	<path class="st0" d="M134.4,357.7c-6.6-12.5-10-26.6-10-40.7V211.4c0-4.2-3.4-7.5-7.5-7.5c-4.2,0-7.5,3.4-7.5,7.5V317V335
		c0,7.2-1.9,14.4-5.4,20.7l-3.7,6.7c-2,3.6-0.8,8.2,2.9,10.3c1.2,0.7,2.4,1,3.7,1c2.6,0,5.2-1.4,6.6-3.8l3.7-6.7
		c0.6-1,1.1-2.1,1.7-3.2c0.8,1.6,1.5,3.3,2.4,4.9l4.6,8.7c0.2,0.3,0.2,0.7,0.2,1l-3.6,57.2c-0.3,4.2,2.9,7.7,7.1,8
		c0.2,0,0.3,0,0.5,0c3.9,0,7.3-3.1,7.5-7.1l3.6-57.2c0.2-3.1-0.5-6.2-1.9-9L134.4,357.7z"/>
	<path class="st0" d="M128.1,456.9c-4.1-0.3-7.7,2.9-8,7.1l-2.5,40.1c-0.3,4.2,2.9,7.7,7.1,8c0.2,0,0.3,0,0.5,0
		c3.9,0,7.3-3.1,7.5-7.1l2.5-40.1C135.5,460.7,132.3,457.1,128.1,456.9L128.1,456.9z"/>
	<path class="st0" d="M484.1,179c0.9,0,1.9-0.2,2.8-0.6c3.9-1.6,5.7-6,4.2-9.8c-12.4-30.6-36-54.6-66.3-67.6l-41.6-17.8
		c-7.7-3.3-14.8-8-20.9-13.8c-13.9-13.3-21.9-31.9-21.9-51.2V7.5c0-4.2-3.4-7.5-7.5-7.5c-4.2,0-7.5,3.4-7.5,7.5v10.7
		c0,23.4,9.7,46,26.6,62.1c7.4,7.1,15.9,12.7,25.3,16.7l41.6,17.8c26.7,11.4,47.4,32.6,58.3,59.4C478.3,177.2,481.1,179,484.1,179z"
		/>
	<path class="st0" d="M499.6,202.9c-0.4-4.1-4.1-7.2-8.3-6.7c-4.1,0.4-7.2,4.1-6.7,8.3c2.1,20.1-1.5,40.5-10.3,58.8
		c-0.5,1-0.8,2.1-0.8,3.3v116.1c0,4.2,3.4,7.5,7.5,7.5c4.2,0,7.5-3.4,7.5-7.5V268.2C498.1,247.8,501.9,225.2,499.6,202.9z"/>
	<path class="st0" d="M408.3,355.7c-3.6-6.3-5.4-13.5-5.4-20.7V317V211.4c0-4.2-3.4-7.5-7.5-7.5c-4.2,0-7.5,3.4-7.5,7.5V317
		c0,14.1-3.5,28.2-10,40.7l-4.6,8.7c-1.5,2.8-2.1,5.9-1.9,9l8.2,129.4c0.3,4,3.6,7.1,7.5,7.1c0.2,0,0.3,0,0.5,0
		c4.2-0.3,7.3-3.8,7.1-8l-8.2-129.4c0-0.4,0.1-0.7,0.2-1l4.6-8.7c0.8-1.6,1.6-3.2,2.4-4.9c0.5,1.1,1.1,2.1,1.7,3.2l3.7,6.7
		c1.4,2.5,3.9,3.8,6.6,3.8c1.3,0,2.5-0.3,3.7-1c3.6-2,4.9-6.6,2.9-10.3L408.3,355.7z"/>
	<path class="st0" d="M300.4,129.1l-4.3-17.6c-1.3-5.2-5.9-8.8-11.2-8.8h-58.8c-5.4,0-10,3.6-11.2,8.8l-4.3,17.6
		c-11.2,1.4-19.9,11-19.9,22.5v1.1c0,12.5,10.1,22.6,22.6,22.7l-2.7,11.1c-11.2,1.4-19.9,11-19.9,22.5v1.1
		c0,12.5,10.1,22.6,22.6,22.7l-2.7,11.1c-11.2,1.4-19.9,11-19.9,22.5v1.1c0,12.5,10.1,22.6,22.6,22.7l-2.7,11.1
		c-11.2,1.4-19.9,11-19.9,22.5v1.1c0,12.5,10.1,22.6,22.6,22.7l-2.7,11.1c-11.2,1.4-19.9,11-19.9,22.5v1.1
		c0,12.5,10.1,22.6,22.6,22.7l-2.7,11.1c-11.2,1.4-19.9,11-19.9,22.5v1.1c0,12.5,10.2,22.7,22.7,22.7h5.9l19.3,14.1
		c2.9,2.1,6,3.6,9.3,4.5v23c0,4.2,3.4,7.5,7.5,7.5c4.2,0,7.5-3.4,7.5-7.5v-23c3.3-0.9,6.4-2.4,9.3-4.5l19.3-14.1h5.9
		c12.5,0,22.7-10.2,22.7-22.7V439c0-11.6-8.7-21.1-19.9-22.5l-2.7-11.1c12.5-0.1,22.6-10.2,22.6-22.7v-1.1
		c0-11.6-8.7-21.1-19.9-22.5l-2.7-11.1c12.5-0.1,22.6-10.2,22.6-22.7v-1.1c0-11.6-8.7-21.1-19.9-22.5l-2.7-11.1
		c12.5-0.1,22.6-10.2,22.6-22.7v-1.1c0-11.6-8.7-21.1-19.9-22.5l-2.7-11.1c12.5-0.1,22.6-10.2,22.6-22.7v-1.1
		c0-11.6-8.7-21.1-19.9-22.5l-2.7-11.1c12.5-0.1,22.6-10.2,22.6-22.7v-1.1C320.3,140.1,311.6,130.5,300.4,129.1L300.4,129.1z
		 M305.2,439v1.1c0,4.2-3.4,7.6-7.6,7.6h-7.1c-2.5,0-4.8,0.8-6.8,2.2l-20.2,14.8c-0.1,0.1-0.3,0.2-0.4,0.3v-16.7
		c0-4.2-3.4-7.5-7.5-7.5s-7.5,3.4-7.5,7.5V465c-0.1-0.1-0.3-0.2-0.4-0.3l-20.2-14.8c-2-1.5-4.4-2.2-6.8-2.2h-7.1
		c-4.2,0-7.6-3.4-7.6-7.6V439c0-4.2,3.4-7.6,7.6-7.6c5.4,0,10-3.6,11.2-8.8l2.7-11.3l11.2,8.2c5,3.7,11,5.5,16.9,5.5
		c5.9,0,11.8-1.8,16.9-5.5l11.2-8.2l2.7,11.3c1.3,5.2,5.9,8.8,11.2,8.8C301.8,431.4,305.2,434.8,305.2,439L305.2,439z M305.2,381.5
		v1.1c0,4.2-3.4,7.6-7.6,7.6h-7.1c-2.5,0-4.8,0.8-6.8,2.2l-20.2,14.8c-0.1,0.1-0.3,0.2-0.4,0.3v-16.7c0-4.2-3.4-7.5-7.5-7.5
		s-7.5,3.4-7.5,7.5v16.7c-0.1-0.1-0.3-0.2-0.4-0.3l-20.2-14.8c-2-1.5-4.4-2.2-6.8-2.2h-7.1c-4.2,0-7.6-3.4-7.6-7.6v-1.1
		c0-4.2,3.4-7.6,7.6-7.6c5.4,0,10-3.6,11.2-8.8l2.7-11.3l11.2,8.2c5,3.7,11,5.5,16.9,5.5s11.8-1.8,16.9-5.5l11.2-8.2l2.7,11.3
		c1.3,5.2,5.9,8.8,11.2,8.8C301.8,373.9,305.2,377.3,305.2,381.5L305.2,381.5z M305.2,324.1v1.1c0,4.2-3.4,7.6-7.6,7.6h-7.1
		c-2.5,0-4.8,0.8-6.8,2.2l-20.2,14.8c-0.1,0.1-0.3,0.2-0.4,0.3v-16.7c0-4.2-3.4-7.5-7.5-7.5s-7.5,3.4-7.5,7.5v16.7
		c-0.1-0.1-0.3-0.2-0.4-0.3L227.4,335c-2-1.5-4.4-2.2-6.8-2.2h-7.1c-4.2,0-7.6-3.4-7.6-7.6v-1.1c0-4.2,3.4-7.6,7.6-7.6
		c5.4,0,10-3.6,11.2-8.8l2.7-11.3l11.2,8.2c5,3.7,11,5.5,16.9,5.5c5.9,0,11.8-1.8,16.9-5.5l11.2-8.2l2.7,11.3
		c1.3,5.2,5.9,8.8,11.2,8.8C301.8,316.4,305.2,319.9,305.2,324.1L305.2,324.1z M305.2,266.6v1.1c0,4.2-3.4,7.6-7.6,7.6h-7.1
		c-2.5,0-4.8,0.8-6.8,2.2l-20.2,14.8c-0.1,0.1-0.3,0.2-0.4,0.3v-16.7c0-4.2-3.4-7.5-7.5-7.5s-7.5,3.4-7.5,7.5v16.7
		c-0.1-0.1-0.3-0.2-0.4-0.3l-20.2-14.8c-2-1.5-4.4-2.2-6.8-2.2h-7.1c-4.2,0-7.6-3.4-7.6-7.6v-1.1c0-4.2,3.4-7.6,7.6-7.6
		c5.4,0,10-3.6,11.2-8.8l2.7-11.3l11.2,8.2c5,3.7,11,5.5,16.9,5.5c5.9,0,11.8-1.8,16.9-5.5l11.2-8.2l2.7,11.3
		c1.3,5.2,5.9,8.8,11.2,8.8C301.8,259,305.2,262.4,305.2,266.6L305.2,266.6z M305.2,209.1v1.1c0,4.2-3.4,7.6-7.6,7.6h-7.1
		c-2.5,0-4.8,0.8-6.8,2.2l-20.2,14.8c-0.1,0.1-0.3,0.2-0.4,0.3v-16.7c0-4.2-3.4-7.5-7.5-7.5s-7.5,3.4-7.5,7.5v16.7
		c-0.1-0.1-0.3-0.2-0.4-0.3l-20.2-14.8c-2-1.5-4.4-2.2-6.8-2.2h-7.1c-4.2,0-7.6-3.4-7.6-7.6v-1.1c0-4.2,3.4-7.6,7.6-7.6
		c5.4,0,10-3.6,11.2-8.8l2.7-11.3l11.2,8.2c5,3.7,11,5.5,16.9,5.5c5.9,0,11.8-1.8,16.9-5.5l11.2-8.2l2.7,11.3
		c1.3,5.2,5.9,8.8,11.2,8.8C301.8,201.5,305.2,204.9,305.2,209.1L305.2,209.1z M305.2,152.7c0,4.2-3.4,7.6-7.6,7.6h-7.1
		c-2.5,0-4.8,0.8-6.8,2.2l-20.2,14.8c-0.1,0.1-0.3,0.2-0.4,0.3V161c0-4.2-3.4-7.5-7.5-7.5s-7.5,3.4-7.5,7.5v16.7
		c-0.1-0.1-0.3-0.2-0.4-0.3l-20.2-14.8c-2-1.5-4.4-2.2-6.8-2.2h-7.1c-4.2,0-7.6-3.4-7.6-7.6v-1.1c0-4.2,3.4-7.6,7.6-7.6
		c5.4,0,10-3.6,11.2-8.8l4.2-17.4h53.2l4.2,17.4c1.3,5.2,5.9,8.8,11.2,8.8c4.2,0,7.6,3.4,7.6,7.6L305.2,152.7L305.2,152.7z"/>
	<path class="st0" d="M255.5,86.9c4.2,0,7.5-3.4,7.5-7.5V61.1c0-4.2-3.4-7.5-7.5-7.5c-4.2,0-7.5,3.4-7.5,7.5v18.3
		C248,83.6,251.4,86.9,255.5,86.9z"/>
	<path class="st0" d="M255.5,33.4c4.2,0,7.5-3.4,7.5-7.5V7.5c0-4.2-3.4-7.5-7.5-7.5c-4.2,0-7.5,3.4-7.5,7.5v18.3
		C248,30,251.4,33.4,255.5,33.4z"/>
</g>
</svg>
